<svg id="Logos" xmlns="http://www.w3.org/2000/svg" viewBox="0 0 199.63 61"><defs><style>.cls-2{fill:#fff}</style></defs><path style="fill:#a41e35" d="M1.96 2.94H50.9v49.05H1.96z"/><path class="cls-2" d="M10 8.3v13.3h2.85V10.95h27.29V21.6h2.71V8.3H10z"/><path class="cls-2" d="M17.33 38.09v2.72h7.53V14.27h-8.82v7.33h2.79v-4.55h3.25v21.04h-4.75zM28.16 14.24v26.53h7.53v-2.71h-4.75V17.02h3.26v4.58h2.78v-7.36h-8.82zM17.33 46.63h18.36v-2.68H17.33v2.68zM69.41 21.34l3.35 1.08v.84H62.12v-.84l3.35-1.08V4.46h-3.8L60.21 8.7H59V2.94h17V8.7h-1.36l-1.55-4.24h-3.68ZM79 15.52v.27c0 3.58 2.36 5.79 5.47 5.79a16 16 0 0 0 3.56-.44l.2 1.13a21.16 21.16 0 0 1-6 1.29c-4.31 0-7-2.9-7-7.36s3-7.94 7.26-7.94c3.91 0 6.06 2.06 6.06 6.72v.54Zm5.5-1.59v-.3c0-3.07-1.11-4.18-2.54-4.18-1.82 0-2.93 1.7-2.93 4.42v.6ZM96 21.34l2.12 1.08v.84h-8.48v-.84l2.57-1.08V10.77L89.64 10v-.82L96 8.08v1.73c2.84-1.2 3.73-1.55 5-1.55a3.41 3.41 0 0 1 3.14 1.7c3.16-1.35 4.27-1.7 5.64-1.7a4.06 4.06 0 0 1 4.13 4.39v8.69l2.57 1.08v.84H108v-.84l2.12-1.08v-7.41c0-2.36-1-3.55-3.11-3.55a7.88 7.88 0 0 0-2.42.39 4.69 4.69 0 0 1 .39 2.42v8.15l2.12 1.08v.84h-8v-.84l2.13-1.08V14c0-2.3-1-3.43-3.05-3.43a8.46 8.46 0 0 0-2.09.24Z"/><path class="cls-2" d="m122.22 28.22 3.17 1v.87h-9.53v-.89l2.57-1V10.8L116 10v-.79l6.24-1.1V10a12.29 12.29 0 0 1 5-1.7c3.11 0 5.47 3 5.47 6.9a8.17 8.17 0 0 1-8.34 8.4 6.31 6.31 0 0 1-2.12-.33Zm0-6.31a5.52 5.52 0 0 0 1.23.12c3.37 0 5.29-2.24 5.29-6.27 0-3.68-1.32-5.32-4.19-5.32a10.49 10.49 0 0 0-2.33.27Z"/><path class="cls-2" d="m135.4 4.52-2.72-.75v-.83l6.52-1.2v19.6l2.53 1.08v.84h-8.93v-.84l2.6-1.08ZM145.66 15.52v.27c0 3.58 2.37 5.79 5.47 5.79a16 16 0 0 0 3.56-.44l.21 1.13a21.15 21.15 0 0 1-6 1.29c-4.3 0-7.05-2.9-7.05-7.36s3-7.94 7.26-7.94c3.92 0 6.07 2.06 6.07 6.72v.54Zm5.5-1.59v-.3c0-3.07-1.1-4.18-2.54-4.18-1.82 0-2.93 1.7-2.93 4.42v.6ZM65.17 45.87c0 3.35 1.43 4.87 4.54 4.87s5-1.49 5-5.08v-12.1l-2.6-1.08v-.83h7.44v.83L77 33.56v11.68c0 4.78-3.31 7.18-8.16 7.18-4.45 0-7.62-2.1-7.62-6.25V33.56l-2.57-1.08v-.83h9.09v.83l-2.57 1.08ZM85.41 50.05l2.27 1.08V52H79v-.84l2.6-1.08v-10.6l-2.6-.72V38l6.4-1.13v1.7C89 37.09 89.38 37 90.73 37c2.51 0 3.88 1.67 3.88 4.42v8.63l2.6 1.08V52h-8.34v-.84l2-1.08v-7.85c0-2-1-3-2.93-3a9.86 9.86 0 0 0-2.51.24ZM100.68 39.48l-2.6-.78v-.81l6.4-1.13v13.29l2.52 1.08V52h-8.92v-.84l2.6-1.08Zm4.06-6.91c0 1.23-.62 1.8-2.3 1.8s-2.21-.57-2.21-1.8.54-1.79 2.21-1.79 2.3.57 2.3 1.79ZM107.65 38.79l-1.88-.79v-.86h8V38l-2.15.81 2.38 6.4a18.82 18.82 0 0 1 .74 2.45l3.34-8.66-2-1v-.86H122V38l-1.77 1-5.74 13.27h-1.67ZM125 44.23v.27c0 3.58 2.36 5.79 5.47 5.79a16 16 0 0 0 3.56-.44l.21 1.13a21.22 21.22 0 0 1-6 1.29c-4.3 0-7.05-2.9-7.05-7.36s3-7.94 7.26-7.94c3.91 0 6.07 2.06 6.07 6.72v.54Zm5.5-1.59v-.3c0-3.07-1.1-4.18-2.54-4.18-1.82 0-2.93 1.7-2.93 4.42v.6ZM142 50.05l3.17 1.08V52h-9.57v-.84l2.57-1.08v-10.6l-2.57-.78v-.81l6.4-1.1v1.88l1.58-.93a6.41 6.41 0 0 1 3-.89 3.71 3.71 0 0 1 1.79.47v3.74h-3.07l-.81-1.91a4.11 4.11 0 0 0-2.45.33ZM149.74 47.87h2l1.44 2.87a.44.44 0 0 0 .21 0h.44c1.89 0 2.81-.72 2.81-2.12 0-1-.27-1.23-1.76-2.18l-2.54-1.53c-1.94-1.16-2.63-2.12-2.63-3.76 0-2.45 2.06-4.21 4.9-4.21a21.74 21.74 0 0 1 4.78.68v3.26h-2l-1.35-2.57h-.14a1.69 1.69 0 0 1-.21 0c-1.68 0-2.66.6-2.66 1.88 0 .9.33 1.23 1.67 2l2.69 1.49a4.35 4.35 0 0 1 2.48 3.94c0 2.69-2.21 4.61-5.35 4.61a20.45 20.45 0 0 1-4.81-.84ZM163.7 39.48l-2.6-.78v-.81l6.4-1.13v13.29l2.5 1.08V52h-8.9v-.84l2.6-1.08Zm4.07-6.91c0 1.23-.63 1.8-2.3 1.8s-2.21-.57-2.21-1.8.53-1.79 2.21-1.79 2.3.57 2.3 1.79ZM169.34 38.64v-1a7.22 7.22 0 0 0 3-1.43 9.09 9.09 0 0 0 1.82-2.81h1.17v3.77h4.47v1.52h-4.47v9.47c0 1.88 1.19 2.24 2.72 2.24a18.87 18.87 0 0 0 2-.18l.3 1.2c-3.38.81-3.92.9-4.93.9-2.24 0-3.86-.72-3.86-3.32V38.64ZM182.37 38.76l-1.76-.76v-.86h7.89V38l-2.13.78 2.4 6.39a16.78 16.78 0 0 1 .83 2.66l3.23-8.83-2.06-1v-.86h6.06V38L195 39.06l-6.6 16.31c-1 2.48-2.48 3.41-5.11 3.41a8.83 8.83 0 0 1-2.33-.27v-2.9h2.45l.59 1.83c1.29-.21 2.16-1.08 3-3.11l.87-2.24Z"/></svg>