<svg id="For_Urban_Investigative_Reporting" data-name="For Urban Investigative Reporting" xmlns="http://www.w3.org/2000/svg" viewBox="0 0 827.45 160.53"><defs><style>.cls-1{fill:#263542}</style></defs><path class="cls-1" d="M82.13 97.13v46.9H10.58V11.8h146.88v132.26H98.43V97.13H82.12ZM346.16 16.55h148.46v90.98H346.16V16.55ZM363.13 115.64h5.69v28.06h-5.69v-28.06ZM438.81 143.1h-4.72v-28.07h4.72v28.07ZM494.59 143.11h-4.54v-27.76h4.54v27.76ZM454.19 143.74h-4.25v-29.29h4.25v29.29ZM426.41 114.7h4.13v29.03h-4.13V114.7ZM360.48 143.43h-4.42v-28.66h4.42v28.66ZM486.34 144.71h-4.19v-28.4h4.19v28.4ZM394.59 144.05v-28.36h4.44v28.36h-4.44ZM408.03 115.99v28.38h-4.18v-28.38h4.18ZM352.57 144.05h-4.21v-28.39h4.21v28.39ZM457.85 143.42v-28.35h4.27v28.35h-4.27ZM470.32 143.1h-4.1v-28.4h4.1v28.4ZM473.57 115.33h4.44v28.08h-4.44v-28.08ZM411.16 115.34h4.22v28.08h-4.22v-28.08ZM379.6 115.35h4.23v28.08h-4.23v-28.08ZM371.69 115.35h4.21v28.07h-4.21v-28.07ZM422.63 143.42h-3.59v-27.76h3.59v27.76ZM446.22 142.76h-3.51v-27.39h3.51v27.39ZM387.51 115.01h3.23v29.03h-3.23v-29.03ZM653.46 18.5v131.28h-64.67V107.1h-11.32v42.7h-65.36V18.5h141.34ZM330.3 8.58v92.2H174.31V8.58H330.3ZM669.61 108.81V19.13H819.7v89.68H669.61ZM185.75 106.81h6.13v28.58h-6.13v-28.58ZM200.41 134.81h-5.49v-29.2h5.49v29.2ZM320.41 106.82h5.4v27h-5.4v-27ZM310.26 135.76h-4.54v-29.52h4.54v29.52ZM298.13 107.44h4.86v27.31h-4.86v-27.31ZM273.86 106.81h4.85v26.98h-4.85v-26.98ZM233.42 134.46v-26.67h4.85v26.67h-4.85ZM207.69 134.14h-4.51v-28.26h4.51v28.26ZM774.08 113.75h4.18v28.04h-4.18v-28.04ZM218.56 107.75h4.14v27.66h-4.14v-27.66ZM793.53 141.82h-4.24v-27.37h4.24v27.37ZM215.64 134.48h-4.39v-27.3h4.39v27.3ZM700.49 140.52h-4v-26.39h4v26.39ZM265.94 107.44h4.23v26.35h-4.23v-26.35ZM230.38 135.12h-3.89v-28.24h3.89v28.24ZM692.23 142.78h-3.79V114.7h3.79v28.08ZM313.67 106.8h3.84v27.99h-3.84V106.8ZM781.05 114.07H785v27.73h-3.95v-27.73ZM286.33 135.12h-4.1v-27.65h4.1v27.65ZM183.56 133.19h-3.84v-26.98h3.84v26.98ZM753.8 113.81v28.31h-3.66v-28.31h3.66ZM746.14 142.14h-3.59v-28.05h3.59v28.05ZM676.41 142.78h-3.29v-28.96h3.29v28.96ZM293.68 135.12h-3.15v-28.26h3.15v28.26ZM722.19 141.8h-3.26v-28.01h3.26v28.01ZM796.32 141.46v-27.67h3.24v27.67h-3.24ZM684.31 141.8h-3.26v-27.38h3.26v27.38ZM804.03 141.47v-26.72h3.49v26.72h-3.49ZM245.58 134.46h-3.23v-26.67h3.23v26.67ZM760.71 141.18h-2.89v-27.71h2.89v27.71ZM261.57 134.47h-2.92v-27h2.92v27ZM715.23 138.61h-3.26v-24.47h3.26v24.47ZM768.65 142.13h-2.83v-28.31h2.83v28.31ZM255.14 135.76h-2.82v-27.94h2.82v27.94ZM811.97 141.8v-27.69h2.61v27.69h-2.61ZM704.09 114.37h2.56v27.43h-2.56v-27.43ZM737.49 141.5h-2.54v-27.05h2.54v27.05ZM727.62 113.43h2.48v27.71h-2.48v-27.71Z"/></svg>