<svg id="Background" xmlns="http://www.w3.org/2000/svg" viewBox="0 0 5520 286"><defs><clipPath id="clippath"><path style="fill:none" d="M0 0h5520v286H0z"/></clipPath><style>.cls-3{fill:#f5f1ea}</style></defs><g style="clip-path:url(#clippath)"><path class="cls-3" d="M305.46-118.79h53.15v536.95h-53.15v-536.95ZM1011.85 406.65h-44.03v-537.08h44.03v537.08ZM1532.42 406.75h-42.38v-531.19h42.38v531.19ZM1155.38 418.86h-39.63v-560.51h39.63v560.51ZM896.1-136.93h38.57v555.45H896.1v-555.45ZM280.74 412.84h-41.21v-548.49h41.21v548.49ZM1455.42 437.36h-39.14v-543.44h39.14v543.44ZM599.08 424.87V-117.8h41.46v542.67h-41.46ZM724.55-112.26v543.17h-39.06v-543.17h39.06ZM206.88 424.84h-39.29v-543.2h39.29v543.2ZM1189.49 412.68v-542.47h39.83v542.47h-39.83ZM1305.95 406.64h-38.31v-543.41h38.31v543.41ZM1336.25-124.75h41.48v537.34h-41.48v-537.34ZM753.73-124.54h39.37v537.31h-39.37v-537.31ZM459.14-124.48h39.46v537.32h-39.46v-537.32ZM385.36-124.42h39.26v537.06h-39.26v-537.06ZM860.76 412.81h-33.52v-531.22h33.52v531.22ZM1080.97 400.05h-32.79v-524.07h32.79v524.07ZM533.05-130.97h30.18v555.43h-30.18v-555.43ZM1717.14-143.51h53.15v536.95h-53.15v-536.95ZM2423.53 381.93h-44.03v-537.08h44.03v537.08ZM2944.09 382.03h-42.38v-531.19h42.38v531.19ZM2567.06 394.14h-39.63v-560.51h39.63v560.51ZM2307.78-161.65h38.57V393.8h-38.57v-555.45ZM1692.41 388.12h-41.21v-548.49h41.21v548.49ZM2867.1 412.64h-39.14V-130.8h39.14v543.44ZM2010.76 400.15v-542.67h41.46v542.67h-41.46ZM2136.22-136.98v543.17h-39.06v-543.17h39.06ZM1618.55 400.12h-39.29v-543.2h39.29v543.2ZM2601.16 387.96v-542.47h39.83v542.47h-39.83ZM2717.62 381.92h-38.31v-543.41h38.31v543.41ZM2747.93-149.47h41.48v537.34h-41.48v-537.34ZM2165.4-149.26h39.37v537.31h-39.37v-537.31ZM1870.82-149.2h39.46v537.32h-39.46V-149.2ZM1797.04-149.14h39.26v537.06h-39.26v-537.06ZM2272.43 388.09h-33.52v-531.22h33.52v531.22ZM2492.64 375.33h-32.79v-524.07h32.79v524.07ZM1944.73-155.69h30.18v555.43h-30.18v-555.43ZM3127.46-140.41h53.15v536.96h-53.15v-536.96ZM3833.84 385.03h-44.03v-537.07h44.03v537.07ZM4354.41 385.13h-42.38v-531.18h42.38v531.18ZM3977.37 397.25h-39.63v-560.51h39.63v560.51ZM3718.1-158.54h38.57V396.9h-38.57v-555.44ZM3102.73 391.23h-41.21v-548.49h41.21v548.49ZM4277.41 415.74h-39.14v-543.43h39.14v543.43ZM3421.07 403.26v-542.68h41.46v542.68h-41.46ZM3546.54-133.87v543.16h-39.06v-543.16h39.06ZM3028.87 403.22h-39.29v-543.19h39.29v543.19ZM4011.48 391.07v-542.48h39.83v542.48h-39.83ZM4127.94 385.03h-38.31v-543.41h38.31v543.41ZM4158.24-146.36h41.48v537.34h-41.48v-537.34ZM3575.72-146.15h39.37v537.3h-39.37v-537.3ZM3281.13-146.09h39.46v537.32h-39.46v-537.32ZM3207.35-146.03h39.26v537.06h-39.26v-537.06ZM3682.75 391.2h-33.52v-531.23h33.52V391.2ZM3902.96 378.43h-32.79v-524.06h32.79v524.06ZM3355.05-152.58h30.18v555.42h-30.18v-555.42ZM4904.19-95.93h44.03v537.08h-44.03V-95.93ZM4383.63-96.03h42.38v531.19h-42.38V-96.03ZM4760.67-108.14h39.63v560.51h-39.63v-560.51ZM5019.94 447.65h-38.57V-107.8h38.57v555.45ZM4460.62-126.64h39.14V416.8h-39.14v-543.44ZM5316.97-114.15v542.67h-41.46v-542.67h41.46ZM5191.5 422.98v-543.17h39.06v543.17h-39.06ZM4726.56-101.96v542.47h-39.83v-542.47h39.83ZM4610.1-95.92h38.31v543.41h-38.31V-95.92ZM4579.8 435.47h-41.48v-537.34h41.48v537.34ZM5162.32 435.26h-39.37v-537.31h39.37v537.31ZM5456.9 435.2h-39.46v-537.32h39.46V435.2ZM5530.68 435.14h-39.26v-537.06h39.26v537.06ZM5055.29-102.09h33.52v531.22h-33.52v-531.22ZM4835.08-89.33h32.79v524.07h-32.79V-89.33ZM5382.99 441.69h-30.18v-555.43h30.18v555.43ZM134.32 382.03H91.94v-531.19h42.38v531.19ZM57.32 412.64H18.19V-130.8h39.13v543.44Z"/></g></svg>