<svg width="168" height="70" fill="none" xmlns="http://www.w3.org/2000/svg"><path d="M5.479 68.885H.507V1.79h4.972v67.1-.006ZM14.692 69.218H9.479V1.463h5.213v67.755ZM18.692 2.177h6.723v66.328h-6.723V2.177ZM29.415 2.171h4.966V68.51h-4.966V2.17ZM38.38 2.153h4.994v66.375h-4.993V2.153ZM47.374 1.039h3.817v68.604h-3.817V1.039ZM55.191 68.853V1.823h5.246v67.036h-5.246v-.006ZM69.377 1.794v67.094h-4.94V1.794h4.94ZM73.377 2.156h4.977v66.37h-4.977V2.156ZM86.596 68.15h-4.242V2.53h4.242v65.62ZM90.596 1.033h4.88v68.615h-4.88V1.033ZM105.044 68.512h-5.567V2.17h5.567v66.343ZM113.189 67.708h-4.145V2.974h4.145v64.734ZM122.204 69.96h-5.015V.72h5.015V69.96ZM126.204 68.846V1.836h5.036v67.01h-5.036ZM140.083 68.903h-4.843V1.778h4.843v67.125ZM144.083 2.153h5.246v66.375h-5.246V2.153ZM158.279 68.903h-4.95V1.778h4.95v67.125ZM167.638 68.148h-5.359V2.533h5.359v65.615Z" fill="#449794"/></svg>