<?xml version="1.0" encoding="UTF-8"?>
<svg id="For_Urban_Investigative_Reporting" data-name="For Urban Investigative Reporting" xmlns="http://www.w3.org/2000/svg" viewBox="0 0 377.23 140.33">
  <defs>
    <style>
      .cls-1 {
        font-family: URWDIN-Black, 'URW DIN';
        font-size: 61.69px;
        font-weight: 800;
      }

      .cls-1, .cls-2, .cls-3 {
        fill: #263542;
      }

      .cls-4 {
        fill: #769998;
      }

      .cls-3 {
        font-family: URWDIN-Regular, 'URW DIN';
        font-size: 16.99px;
      }
    </style>
  </defs>
  <g>
    <path class="cls-2" d="M30.8,37.9v17.99H3.36V5.17H59.69V55.9h-22.64v-18h-6.25Z"/>
    <path class="cls-2" d="M132.05,6.99h56.94V41.89h-56.94V6.99Z"/>
    <path class="cls-2" d="M138.56,45h2.18v10.76h-2.18v-10.76Z"/>
    <path class="cls-2" d="M167.59,55.53h-1.81v-10.76h1.81v10.76Z"/>
    <path class="cls-2" d="M188.98,55.53h-1.74v-10.65h1.74v10.65Z"/>
    <path class="cls-2" d="M173.48,55.77h-1.63v-11.23h1.63v11.23Z"/>
    <path class="cls-2" d="M162.83,44.64h1.58v11.13h-1.58v-11.13Z"/>
    <path class="cls-2" d="M137.55,55.65h-1.69v-10.99h1.69v10.99Z"/>
    <path class="cls-2" d="M185.81,56.15h-1.61v-10.89h1.61v10.89Z"/>
    <path class="cls-2" d="M150.63,55.9v-10.88h1.7v10.88h-1.7Z"/>
    <path class="cls-2" d="M155.78,45.13v10.89h-1.6v-10.89h1.6Z"/>
    <path class="cls-2" d="M134.51,55.89h-1.61v-10.89h1.61v10.89Z"/>
    <path class="cls-2" d="M174.89,55.65v-10.87h1.64v10.87h-1.64Z"/>
    <path class="cls-2" d="M179.67,55.53h-1.57v-10.89h1.57v10.89Z"/>
    <path class="cls-2" d="M180.92,44.88h1.7v10.77h-1.7v-10.77Z"/>
    <path class="cls-2" d="M156.98,44.88h1.62v10.77h-1.62v-10.77Z"/>
    <path class="cls-2" d="M144.88,44.89h1.62v10.77h-1.62v-10.77Z"/>
    <path class="cls-2" d="M141.85,44.89h1.61v10.76h-1.61v-10.76Z"/>
    <path class="cls-2" d="M161.38,55.65h-1.38v-10.65h1.38v10.65Z"/>
    <path class="cls-2" d="M170.43,55.4h-1.35v-10.5h1.35v10.5Z"/>
    <path class="cls-2" d="M147.91,44.76h1.24v11.13h-1.24v-11.13Z"/>
  </g>
  <g>
    <path class="cls-4" d="M249.9,7.74V58.09h-24.8v-16.37h-4.34v16.38h-25.07V7.74h54.21Z"/>
    <path class="cls-4" d="M125.97,3.94V39.3h-59.82V3.94h59.82Z"/>
    <path class="cls-4" d="M256.1,42.38V7.99h57.56V42.38h-57.56Z"/>
    <path class="cls-4" d="M70.54,41.61h2.35v10.96h-2.35v-10.96Z"/>
    <path class="cls-4" d="M76.16,52.35h-2.11v-11.2h2.11v11.2Z"/>
    <path class="cls-4" d="M122.18,41.61h2.07v10.35h-2.07v-10.35Z"/>
    <path class="cls-4" d="M118.29,52.71h-1.74v-11.32h1.74v11.32Z"/>
    <path class="cls-4" d="M113.63,41.85h1.86v10.47h-1.86v-10.47Z"/>
    <path class="cls-4" d="M104.33,41.61h1.86v10.35h-1.86v-10.35Z"/>
    <path class="cls-4" d="M88.82,52.21v-10.23h1.86v10.23h-1.86Z"/>
    <path class="cls-4" d="M78.95,52.09h-1.73v-10.84h1.73v10.84Z"/>
    <path class="cls-4" d="M296.16,44.27h1.6v10.75h-1.6v-10.75Z"/>
    <path class="cls-4" d="M83.12,41.97h1.59v10.61h-1.59v-10.61Z"/>
    <path class="cls-4" d="M303.62,55.04h-1.63v-10.5h1.63v10.5Z"/>
    <path class="cls-4" d="M82,52.22h-1.68v-10.47h1.68v10.47Z"/>
    <path class="cls-4" d="M267.94,54.54h-1.53v-10.12h1.53v10.12Z"/>
    <path class="cls-4" d="M101.29,41.85h1.62v10.11h-1.62v-10.11Z"/>
    <path class="cls-4" d="M87.65,52.47h-1.49v-10.83h1.49v10.83Z"/>
    <path class="cls-4" d="M264.77,55.41h-1.45v-10.77h1.45v10.77Z"/>
    <path class="cls-4" d="M119.59,41.61h1.47v10.73h-1.47v-10.73Z"/>
    <path class="cls-4" d="M298.84,44.4h1.52v10.64h-1.52v-10.64Z"/>
    <path class="cls-4" d="M109.11,52.47h-1.57v-10.6h1.57v10.6Z"/>
    <path class="cls-4" d="M69.69,51.73h-1.47v-10.35h1.47v10.35Z"/>
    <path class="cls-4" d="M288.38,44.3v10.86h-1.41v-10.86h1.41Z"/>
    <path class="cls-4" d="M285.45,55.16h-1.37v-10.76h1.37v10.76Z"/>
    <path class="cls-4" d="M258.71,55.41h-1.26v-11.11h1.26v11.11Z"/>
    <path class="cls-4" d="M111.93,52.47h-1.21v-10.84h1.21v10.84Z"/>
    <path class="cls-4" d="M276.26,55.03h-1.25v-10.74h1.25v10.74Z"/>
    <path class="cls-4" d="M304.69,54.9v-10.61h1.24v10.61h-1.24Z"/>
    <path class="cls-4" d="M261.74,55.03h-1.25v-10.5h1.25v10.5Z"/>
    <path class="cls-4" d="M307.65,54.9v-10.25h1.34v10.25h-1.34Z"/>
    <path class="cls-4" d="M93.48,52.22h-1.24v-10.23h1.24v10.23Z"/>
    <path class="cls-4" d="M291.04,54.79h-1.11v-10.63h1.11v10.63Z"/>
    <path class="cls-4" d="M99.61,52.22h-1.12v-10.35h1.12v10.35Z"/>
    <path class="cls-4" d="M273.6,53.81h-1.25v-9.39h1.25v9.39Z"/>
    <path class="cls-4" d="M294.08,55.16h-1.08v-10.86h1.08v10.86Z"/>
    <path class="cls-4" d="M97.15,52.71h-1.08v-10.71h1.08v10.71Z"/>
    <path class="cls-4" d="M310.69,55.03v-10.62h1v10.62h-1Z"/>
    <path class="cls-4" d="M269.32,44.51h.98v10.52h-.98v-10.52Z"/>
    <path class="cls-4" d="M282.13,54.91h-.97v-10.37h.97v10.37Z"/>
    <path class="cls-4" d="M278.35,44.15h.95v10.63h-.95v-10.63Z"/>
  </g>
  <text class="cls-1" transform="translate(-1.55 107.96)"><tspan x="0" y="0">Logan Center</tspan></text>
  <g id="For_Urban_Investigative_Reporting-2" data-name="For Urban Investigative Reporting">
    <text class="cls-3" transform="translate(110.96 127.73)"><tspan x="0" y="0">For Urban Investigative Reporting</tspan></text>
  </g>
</svg>