<svg viewBox="0 0 194 42" xmlns="http://www.w3.org/2000/svg"><path d="M1.232 23h14.477v-4.464H6.75V.866H1.232V23Zm17.242-6.913c0 5.239 2.046 7.285 7.285 7.285 5.27 0 7.316-2.046 7.316-7.285v-2.418c0-5.239-2.046-7.285-7.285-7.285-5.27 0-7.316 2.046-7.316 7.285v2.418Zm9.393-.403c0 2.666-.527 3.565-2.077 3.565-1.58 0-2.108-.899-2.108-3.565v-1.612c0-2.666.527-3.565 2.108-3.565 1.55 0 2.077.899 2.077 3.565v1.612Zm17.59 7.099c0 2.511-.776 3.596-2.543 3.596-1.209 0-1.89-.465-2.573-1.767l-3.813 2.108c1.147 2.48 3.255 3.627 6.572 3.627 2.666 0 4.743-.806 5.983-2.294 1.116-1.271 1.581-3.069 1.581-5.89V6.756h-3.968l-.527.744c-.93-.775-2.046-1.116-3.782-1.116-4.34 0-6.076 2.108-6.076 7.347v2.294c0 5.239 1.736 7.347 6.014 7.347 1.271 0 2.294-.217 3.131-.682v.093Zm-3.969-8.649c0-2.573.59-3.627 2.015-3.627 1.364 0 1.953.744 1.953 2.511v3.751c0 1.736-.589 2.48-1.953 2.48-1.457 0-2.015-1.023-2.015-3.627v-1.488Zm21.303-1.209h-2.697c-4.62 0-6.014 1.209-6.014 5.239 0 3.72 1.519 5.208 5.425 5.208 1.953 0 3.192-.341 4.122-1.116l.31.744H68v-9.424c0-2.015-.155-3.224-.527-4.123-.837-2.046-2.914-3.069-6.138-3.069-3.132 0-5.519 1.116-6.883 3.193l3.566 2.48c.867-1.116 1.673-1.55 2.79-1.55 1.332 0 1.983.682 1.983 2.077v.341Zm0 3.348v.93c0 1.798-.434 2.325-1.922 2.325-1.395 0-1.892-.434-1.892-1.581 0-1.209.528-1.674 1.83-1.674h1.983ZM72.087 23h5.208v-8.494c0-2.728.496-3.658 1.953-3.658 1.333 0 1.829.961 1.829 3.503V23h5.208v-9.269c0-2.139-.124-3.317-.465-4.216-.775-2.046-2.604-3.131-5.27-3.131-1.953 0-3.1.403-4.154 1.426l-.434-1.054h-3.875V23Zm36.241-6.913c-.248 2.046-1.116 2.852-3.069 2.852-2.232 0-2.821-1.054-2.821-4.929V9.949c0-3.875.62-4.929 2.821-4.929 1.767 0 2.542.806 2.759 2.821l5.053-.341c-.093-2.015-.403-3.131-1.178-4.247-1.302-1.829-3.379-2.666-6.696-2.666-3.1 0-4.991.651-6.448 2.263-1.333 1.426-1.83 3.224-1.83 6.665v4.929c0 3.193.404 4.898 1.489 6.293 1.457 1.86 3.472 2.635 6.82 2.635 3.131 0 5.239-.682 6.603-2.108 1.085-1.178 1.519-2.356 1.643-4.557l-5.146-.62Zm13.446.155h9.331v-1.705c0-5.89-2.015-8.153-7.285-8.153s-7.285 2.263-7.285 8.153v.961c0 5.673 2.015 7.874 7.161 7.874 3.937 0 6.014-1.023 7.44-3.627l-3.844-2.108c-.744 1.271-1.55 1.767-2.976 1.767-1.705 0-2.542-.93-2.542-2.852v-.31Zm-.031-3.472v-.403c0-1.395.837-2.263 2.232-2.263 1.395 0 2.232.837 2.232 2.232v.434h-4.464ZM134.595 23h5.208v-8.494c0-2.728.496-3.658 1.953-3.658 1.333 0 1.829.961 1.829 3.503V23h5.208v-9.269c0-2.139-.124-3.317-.465-4.216-.775-2.046-2.604-3.131-5.27-3.131-1.953 0-3.1.403-4.154 1.426l-.434-1.054h-3.875V23Zm18.632-12.152v4.061c-.031 6.789 1.24 8.091 7.843 8.091h.527v-4.185h-.31c-2.201.031-2.883-.744-2.852-3.379v-4.588h3.255V6.756h-3.255v-4.34h-4.898l-.31 4.34h-1.705v4.092h1.705Zm16.276 5.394h9.331v-1.705c0-5.89-2.015-8.153-7.285-8.153s-7.285 2.263-7.285 8.153v.961c0 5.673 2.015 7.874 7.161 7.874 3.937 0 6.014-1.023 7.44-3.627l-3.844-2.108c-.744 1.271-1.55 1.767-2.976 1.767-1.705 0-2.542-.93-2.542-2.852v-.31Zm-.031-3.472v-.403c0-1.395.837-2.263 2.232-2.263 1.395 0 2.232.837 2.232 2.232v.434h-4.464ZM182.323 23h5.208v-7.781c0-3.1.496-4.371 1.736-4.371.651 0 1.271.279 2.077.961l2.263-4.278c-1.488-.806-2.573-1.147-3.813-1.147-1.085 0-1.736.31-2.852 1.24l-.651-.868h-3.968V23ZM.248 39h.996v-3.852h3.372v-.84H1.244v-3.036h3.972v-.84H.248V39Zm6.65-2.544c0 1.812.78 2.652 2.472 2.652 1.728 0 2.508-.828 2.508-2.652v-.936c0-1.836-.78-2.664-2.508-2.664-1.692 0-2.472.852-2.472 2.664v.936Zm4.032-.06c0 1.308-.492 1.92-1.548 1.92-1.044 0-1.536-.612-1.536-1.92v-.816c0-1.32.492-1.932 1.536-1.932 1.056 0 1.548.612 1.548 1.932v.816ZM14.242 39h.948v-2.94c0-1.656.372-2.364 1.248-2.364.3 0 .528.072.852.288l.396-.816a2.208 2.208 0 0 0-1.164-.312c-.672 0-1.104.204-1.44.684l-.096-.564h-.744V39Zm7.978-8.568v5.424c0 1.116.096 1.632.408 2.112.504.78 1.308 1.14 2.52 1.14 1.14 0 1.884-.3 2.412-.996.396-.504.516-1.044.516-2.256v-5.424h-.996v5.424c0 .78-.072 1.2-.24 1.536-.324.612-.84.876-1.692.876-.804 0-1.272-.228-1.62-.756-.228-.372-.312-.792-.312-1.656v-5.424h-.996ZM30.762 39h.948v-2.94c0-1.656.372-2.364 1.248-2.364.3 0 .528.072.852.288l.396-.816a2.208 2.208 0 0 0-1.164-.312c-.672 0-1.104.204-1.44.684l-.096-.564h-.744V39Zm5.289 0h.744l.06-.516c.18.168.3.264.348.288.336.228.828.348 1.416.348 1.584 0 2.292-.828 2.292-2.676v-.912c0-1.836-.708-2.676-2.268-2.676-.732 0-1.2.168-1.644.576v-3h-.948V39Zm3.912-2.616c0 1.308-.48 1.944-1.464 1.944-.996 0-1.5-.612-1.5-1.848v-.984c0-1.236.492-1.848 1.5-1.848.984 0 1.464.624 1.464 1.944v.792Zm6.597-.924h-1.452c-1.716 0-2.292.468-2.292 1.86 0 1.308.564 1.788 2.112 1.788.912 0 1.368-.144 1.752-.54l.072.432h.756v-3.816c0-.744-.06-1.104-.252-1.452-.336-.576-.996-.876-1.932-.876-.948 0-1.668.3-2.184.9l.66.504c.348-.396.852-.612 1.44-.612.504 0 .9.156 1.104.432.156.228.216.468.216.96v.42Zm0 .72v.936c0 .456-.036.636-.168.804-.216.276-.588.396-1.248.396-1.068 0-1.416-.252-1.416-1.02 0-.804.408-1.116 1.476-1.116h1.356ZM50.048 39h.948v-3.06c0-1.632.408-2.268 1.453-2.268.971 0 1.367.552 1.367 1.956V39h.948v-3.456c0-.708-.06-1.176-.18-1.524-.276-.78-.96-1.164-2.028-1.164-.828 0-1.343.24-1.703.792l-.072-.672h-.733V39Zm10.3 0h.996v-8.568h-.996V39Zm3.76 0h.948v-3.06c0-1.632.408-2.268 1.452-2.268.972 0 1.368.552 1.368 1.956V39h.948v-3.456c0-.708-.06-1.176-.18-1.524-.276-.78-.96-1.164-2.028-1.164-.828 0-1.344.24-1.704.792l-.072-.672h-.732V39Zm8.615 0h.864l2.184-6.024h-.972l-1.644 4.776-1.644-4.776h-.972L72.723 39Zm5.588-2.82h3.936v-.432c0-1.992-.755-2.892-2.448-2.892-1.692 0-2.448.9-2.448 2.892v.516c0 1.932.817 2.844 2.544 2.844 1.056 0 1.705-.276 2.184-.924l-.707-.456c-.349.42-.745.588-1.38.588-1.093 0-1.68-.66-1.68-1.884v-.252Zm0-.72v-.096c0-.42.096-.816.252-1.104.252-.432.624-.612 1.272-.612.565 0 .925.156 1.177.516.204.288.323.732.323 1.2v.096h-3.023ZM84 38.172c.42.612 1.224.936 2.352.936 1.608 0 2.4-.588 2.4-1.776 0-.6-.192-1.08-.54-1.332-.324-.24-.72-.348-1.644-.48-.54-.072-.744-.12-.948-.228-.24-.144-.372-.396-.372-.696 0-.612.408-.948 1.152-.948.648 0 1.02.168 1.392.612l.72-.444c-.468-.66-1.164-.96-2.184-.96-1.272 0-1.992.636-1.992 1.788 0 .516.156.9.48 1.176.288.252.672.372 1.5.492.72.096.876.132 1.116.252.264.132.408.396.408.744 0 .672-.504 1.008-1.524 1.008-.792 0-1.2-.156-1.62-.588l-.696.444Zm7.184-4.404v3.228c0 1.62.384 2.004 1.956 2.004h.216v-.804h-.204c-.78.012-1.02-.252-1.02-1.104v-3.324h1.188v-.792h-1.188v-1.932h-.9l-.048 1.932h-.732v.792h.732Zm4.288-2.1h.948v-1.272h-.948v1.272Zm0 7.332h.948v-6.024h-.948V39Zm7.215.096c-.036 1.344-.54 1.944-1.656 1.944-.624 0-1.008-.18-1.356-.612l-.708.432c.456.66 1.104.948 2.1.948 1.716 0 2.568-.924 2.568-2.808v-6.024h-.744l-.072.54c-.42-.468-.948-.66-1.764-.66-1.572 0-2.28.84-2.28 2.676v.912c0 1.824.708 2.664 2.256 2.664.768 0 1.272-.168 1.668-.576l-.012.564Zm-2.964-3.504c0-1.32.468-1.944 1.464-1.944s1.5.624 1.5 1.848v.984c0 1.224-.504 1.836-1.5 1.836s-1.464-.624-1.464-1.932v-.792Zm9.788-.132h-1.452c-1.716 0-2.292.468-2.292 1.86 0 1.308.564 1.788 2.112 1.788.912 0 1.368-.144 1.752-.54l.072.432h.756v-3.816c0-.744-.06-1.104-.252-1.452-.336-.576-.996-.876-1.932-.876-.948 0-1.668.3-2.184.9l.66.504c.348-.396.852-.612 1.44-.612.504 0 .9.156 1.104.432.156.228.216.468.216.96v.42Zm0 .72v.936c0 .456-.036.636-.168.804-.216.276-.588.396-1.248.396-1.068 0-1.416-.252-1.416-1.02 0-.804.408-1.116 1.476-1.116h1.356Zm3.67-2.412v3.228c0 1.62.384 2.004 1.956 2.004h.216v-.804h-.204c-.78.012-1.02-.252-1.02-1.104v-3.324h1.188v-.792h-1.188v-1.932h-.9l-.048 1.932h-.732v.792h.732Zm4.287-2.1h.948v-1.272h-.948v1.272Zm0 7.332h.948v-6.024h-.948V39Zm5.099 0h.864l2.184-6.024h-.972l-1.644 4.776-1.644-4.776h-.972L122.566 39Zm5.589-2.82h3.936v-.432c0-1.992-.756-2.892-2.448-2.892s-2.448.9-2.448 2.892v.516c0 1.932.816 2.844 2.544 2.844 1.056 0 1.704-.276 2.184-.924l-.708-.456c-.348.42-.744.588-1.38.588-1.092 0-1.68-.66-1.68-1.884v-.252Zm0-.72v-.096c0-.42.096-.816.252-1.104.252-.432.624-.612 1.272-.612.564 0 .924.156 1.176.516.204.288.324.732.324 1.2v.096h-3.024Zm10.282-.156h1.848L142.049 39h1.104l-1.884-3.804c1.2-.228 1.764-.972 1.764-2.376 0-.78-.192-1.332-.612-1.764-.444-.444-1.02-.624-2.04-.624h-2.94V39h.996v-3.696Zm-.012-.828V31.26h1.86c1.2 0 1.752.504 1.752 1.608 0 1.092-.528 1.608-1.644 1.608h-1.968Zm7.633 1.704h3.936v-.432c0-1.992-.756-2.892-2.448-2.892s-2.448.9-2.448 2.892v.516c0 1.932.816 2.844 2.544 2.844 1.056 0 1.704-.276 2.184-.924l-.708-.456c-.348.42-.744.588-1.38.588-1.092 0-1.68-.66-1.68-1.884v-.252Zm0-.72v-.096c0-.42.096-.816.252-1.104.252-.432.624-.612 1.272-.612.564 0 .924.156 1.176.516.204.288.324.732.324 1.2v.096h-3.024Zm6.232 6.24h.948v-3.144c.432.384.936.552 1.644.552 1.56 0 2.268-.84 2.268-2.664v-.912c0-1.836-.708-2.676-2.268-2.676-.792 0-1.344.192-1.752.624l-.096-.504h-.744V41.7Zm3.912-5.316c0 1.308-.48 1.932-1.464 1.932-.996 0-1.5-.612-1.5-1.836v-.984c0-1.236.504-1.848 1.5-1.848.984 0 1.464.624 1.464 1.944v.792Zm3.117.072c0 1.812.78 2.652 2.472 2.652 1.728 0 2.508-.828 2.508-2.652v-.936c0-1.836-.78-2.664-2.508-2.664-1.692 0-2.472.852-2.472 2.664v.936Zm4.032-.06c0 1.308-.492 1.92-1.548 1.92-1.044 0-1.536-.612-1.536-1.92v-.816c0-1.32.492-1.932 1.536-1.932 1.056 0 1.548.612 1.548 1.932v.816ZM166.663 39h.948v-2.94c0-1.656.372-2.364 1.248-2.364.3 0 .528.072.852.288l.396-.816a2.208 2.208 0 0 0-1.164-.312c-.672 0-1.104.204-1.44.684l-.096-.564h-.744V39Zm5.738-5.232v3.228c0 1.62.384 2.004 1.956 2.004h.216v-.804h-.204c-.78.012-1.02-.252-1.02-1.104v-3.324h1.188v-.792h-1.188v-1.932h-.9l-.048 1.932h-.732v.792h.732Zm4.287-2.1h.948v-1.272h-.948v1.272Zm0 7.332h.948v-6.024h-.948V39Zm3.519 0h.948v-3.06c0-1.632.408-2.268 1.452-2.268.972 0 1.368.552 1.368 1.956V39h.948v-3.456c0-.708-.06-1.176-.18-1.524-.276-.78-.96-1.164-2.028-1.164-.828 0-1.344.24-1.704.792l-.072-.672h-.732V39Zm10.941.096c-.036 1.344-.54 1.944-1.656 1.944-.624 0-1.008-.18-1.356-.612l-.708.432c.456.66 1.104.948 2.1.948 1.716 0 2.568-.924 2.568-2.808v-6.024h-.744l-.072.54c-.42-.468-.948-.66-1.764-.66-1.572 0-2.28.84-2.28 2.676v.912c0 1.824.708 2.664 2.256 2.664.768 0 1.272-.168 1.668-.576l-.012.564Zm-2.964-3.504c0-1.32.468-1.944 1.464-1.944s1.5.624 1.5 1.848v.984c0 1.224-.504 1.836-1.5 1.836s-1.464-.624-1.464-1.932v-.792Z" fill="#fff"/></svg>