<svg id="For_Urban_Investigative_Reporting" data-name="For Urban Investigative Reporting" xmlns="http://www.w3.org/2000/svg" viewBox="0 0 377.23 140.33"><defs><style>.cls-1{fill:#fff}.cls-2{fill:#769998}</style></defs><path class="cls-1" d="M30.8 37.9v17.99H3.36V5.17h56.33V55.9H37.05v-18H30.8ZM132.05 6.99h56.94v34.9h-56.94V6.99ZM138.56 45h2.18v10.76h-2.18V45ZM167.59 55.53h-1.81V44.77h1.81v10.76ZM188.98 55.53h-1.74V44.88h1.74v10.65ZM173.48 55.77h-1.63V44.54h1.63v11.23ZM162.83 44.64h1.58v11.13h-1.58V44.64ZM137.55 55.65h-1.69V44.66h1.69v10.99ZM185.81 56.15h-1.61V45.26h1.61v10.89ZM150.63 55.9V45.02h1.7V55.9h-1.7ZM155.78 45.13v10.89h-1.6V45.13h1.6ZM134.51 55.89h-1.61V45h1.61v10.89ZM174.89 55.65V44.78h1.64v10.87h-1.64ZM179.67 55.53h-1.57V44.64h1.57v10.89ZM180.92 44.88h1.7v10.77h-1.7V44.88ZM156.98 44.88h1.62v10.77h-1.62V44.88ZM144.88 44.89h1.62v10.77h-1.62V44.89ZM141.85 44.89h1.61v10.76h-1.61V44.89ZM161.38 55.65H160V45h1.38v10.65ZM170.43 55.4h-1.35V44.9h1.35v10.5ZM147.91 44.76h1.24v11.13h-1.24V44.76Z"/><path class="cls-2" d="M249.9 7.74v50.35h-24.8V41.72h-4.34V58.1h-25.07V7.74h54.21ZM125.97 3.94V39.3H66.15V3.94h59.82ZM256.1 42.38V7.99h57.56v34.39H256.1ZM70.54 41.61h2.35v10.96h-2.35V41.61ZM76.16 52.35h-2.11v-11.2h2.11v11.2ZM122.18 41.61h2.07v10.35h-2.07V41.61ZM118.29 52.71h-1.74V41.39h1.74v11.32ZM113.63 41.85h1.86v10.47h-1.86V41.85ZM104.33 41.61h1.86v10.35h-1.86V41.61ZM88.82 52.21V41.98h1.86v10.23h-1.86ZM78.95 52.09h-1.73V41.25h1.73v10.84ZM296.16 44.27h1.6v10.75h-1.6V44.27ZM83.12 41.97h1.59v10.61h-1.59V41.97ZM303.62 55.04h-1.63v-10.5h1.63v10.5ZM82 52.22h-1.68V41.75H82v10.47ZM267.94 54.54h-1.53V44.42h1.53v10.12ZM101.29 41.85h1.62v10.11h-1.62V41.85ZM87.65 52.47h-1.49V41.64h1.49v10.83ZM264.77 55.41h-1.45V44.64h1.45v10.77ZM119.59 41.61h1.47v10.73h-1.47V41.61ZM298.84 44.4h1.52v10.64h-1.52V44.4ZM109.11 52.47h-1.57v-10.6h1.57v10.6ZM69.69 51.73h-1.47V41.38h1.47v10.35ZM288.38 44.3v10.86h-1.41V44.3h1.41ZM285.45 55.16h-1.37V44.4h1.37v10.76ZM258.71 55.41h-1.26V44.3h1.26v11.11ZM111.93 52.47h-1.21V41.63h1.21v10.84ZM276.26 55.03h-1.25V44.29h1.25v10.74ZM304.69 54.9V44.29h1.24V54.9h-1.24ZM261.74 55.03h-1.25v-10.5h1.25v10.5ZM307.65 54.9V44.65h1.34V54.9h-1.34ZM93.48 52.22h-1.24V41.99h1.24v10.23ZM291.04 54.79h-1.11V44.16h1.11v10.63ZM99.61 52.22h-1.12V41.87h1.12v10.35ZM273.6 53.81h-1.25v-9.39h1.25v9.39ZM294.08 55.16H293V44.3h1.08v10.86ZM97.15 52.71h-1.08V42h1.08v10.71ZM310.69 55.03V44.41h1v10.62h-1ZM269.32 44.51h.98v10.52h-.98V44.51ZM282.13 54.91h-.97V44.54h.97v10.37ZM278.35 44.15h.95v10.63h-.95V44.15Z"/><path class="cls-1" d="M2.89 63.92h10.98v35.16H31.7v8.88H2.89V63.92ZM36.32 89.39c0-10.43 4.07-14.5 14.56-14.5s14.5 4.07 14.5 14.5v4.81c0 10.43-4.07 14.5-14.56 14.5s-14.5-4.07-14.5-14.5v-4.81Zm18.69.8c0-5.3-1.05-7.09-4.13-7.09s-4.2 1.79-4.2 7.09v3.21c0 5.31 1.05 7.09 4.2 7.09s4.13-1.79 4.13-7.09v-3.21ZM89.13 107.35c-1.67.93-3.7 1.36-6.23 1.36-8.51 0-11.97-4.2-11.97-14.62v-4.56c0-10.43 3.46-14.62 12.09-14.62 3.46 0 5.68.68 7.53 2.22l1.05-1.48h7.9v30.66c0 5.61-.93 9.19-3.15 11.72-2.47 2.96-6.6 4.57-11.91 4.57-6.6 0-10.8-2.28-13.08-7.22l7.59-4.2c1.36 2.59 2.71 3.52 5.12 3.52 3.52 0 5.06-2.16 5.06-7.16v-.19Zm-7.9-14.07c0 5.18 1.11 7.22 4.01 7.22 2.71 0 3.89-1.48 3.89-4.94V88.1c0-3.52-1.17-5-3.89-5s-4.01 2.1-4.01 7.22v2.96ZM122.69 87.23c0-2.78-1.29-4.13-3.95-4.13-2.22 0-3.82.86-5.55 3.08l-7.09-4.93c2.71-4.13 7.46-6.35 13.7-6.35s10.55 2.04 12.21 6.11c.74 1.79 1.05 4.2 1.05 8.21v18.75h-8.08l-.62-1.48c-1.85 1.54-4.32 2.22-8.21 2.22-7.77 0-10.8-2.96-10.8-10.36 0-8.02 2.78-10.43 11.97-10.43h5.37v-.68Zm-3.95 7.34c-2.59 0-3.64.92-3.64 3.33 0 2.28.99 3.15 3.76 3.15 2.96 0 3.82-1.05 3.82-4.63v-1.85h-3.95ZM140.27 75.64h7.71l.86 2.1c2.1-2.04 4.38-2.84 8.27-2.84 5.31 0 8.95 2.16 10.49 6.23.68 1.79.92 4.13.92 8.39v18.45h-10.36V90.76c0-5.06-.99-6.97-3.64-6.97-2.9 0-3.89 1.85-3.89 7.28v16.9h-10.36V75.64ZM220.77 95.44c-.25 4.38-1.11 6.72-3.27 9.07-2.71 2.84-6.91 4.2-13.14 4.2-6.66 0-10.67-1.54-13.57-5.24-2.16-2.78-2.96-6.17-2.96-12.52v-9.81c0-6.85.99-10.43 3.64-13.26 2.9-3.21 6.66-4.5 12.83-4.5 6.6 0 10.73 1.67 13.33 5.31 1.54 2.22 2.16 4.44 2.34 8.45l-10.06.68c-.43-4.01-1.97-5.61-5.49-5.61-4.38 0-5.61 2.1-5.61 9.81v8.08c0 7.71 1.17 9.81 5.61 9.81 3.89 0 5.61-1.6 6.11-5.67l10.24 1.23ZM236.38 95.13c0 3.83 1.67 5.68 5.06 5.68 2.84 0 4.44-.99 5.92-3.52l7.65 4.2c-2.84 5.18-6.97 7.22-14.81 7.22-10.24 0-14.25-4.38-14.25-15.67v-1.91c0-11.72 4.01-16.22 14.5-16.22s14.5 4.5 14.5 16.22v3.39h-18.57v.62Zm8.82-7.53v-.86c0-2.78-1.67-4.44-4.44-4.44s-4.44 1.73-4.44 4.5v.8h8.88ZM260.99 75.64h7.71l.86 2.1c2.1-2.04 4.38-2.84 8.27-2.84 5.31 0 8.95 2.16 10.49 6.23.68 1.79.93 4.13.93 8.39v18.45h-10.36V90.76c0-5.06-.99-6.97-3.64-6.97-2.9 0-3.89 1.85-3.89 7.28v16.9H261V75.64ZM293.75 83.78v-8.14h3.39l.62-8.64h9.75v8.64h6.48v8.14h-6.48v9.13c-.06 5.24 1.3 6.79 5.68 6.72h.62v8.33h-1.05c-13.14 0-15.67-2.59-15.61-16.1v-8.08h-3.39ZM328.61 95.13c0 3.83 1.67 5.68 5.06 5.68 2.84 0 4.44-.99 5.92-3.52l7.65 4.2c-2.84 5.18-6.97 7.22-14.81 7.22-10.24 0-14.25-4.38-14.25-15.67v-1.91c0-11.72 4.01-16.22 14.5-16.22s14.5 4.5 14.5 16.22v3.39h-18.57v.62Zm8.82-7.53v-.86c0-2.78-1.67-4.44-4.44-4.44s-4.44 1.73-4.44 4.5v.8h8.88ZM353.22 75.64h7.9l1.3 1.73c2.22-1.85 3.52-2.47 5.68-2.47 2.47 0 4.63.68 7.59 2.28l-4.5 8.51c-1.6-1.36-2.84-1.91-4.13-1.91-2.47 0-3.46 2.53-3.46 8.7v15.48h-10.36V75.63ZM112.73 115.59h7.04v1.19h-5.63v4.3h4.78v1.19h-4.78v5.46h-1.41v-12.14ZM121.5 122.8c0-2.57 1.1-3.77 3.5-3.77s3.55 1.17 3.55 3.77v1.33c0 2.58-1.1 3.76-3.55 3.76s-3.5-1.19-3.5-3.76v-1.33Zm5.71.08c0-1.87-.7-2.74-2.19-2.74s-2.18.87-2.18 2.74v1.16c0 1.85.7 2.72 2.18 2.72s2.19-.87 2.19-2.72v-1.16ZM131.25 119.2h1.05l.14.8c.48-.68 1.09-.97 2.04-.97.59 0 1.07.12 1.65.44l-.56 1.16c-.46-.31-.78-.41-1.21-.41-1.24 0-1.77 1-1.77 3.35v4.17h-1.34v-8.53ZM142.66 115.59v7.68c0 1.22.12 1.82.44 2.35.49.75 1.16 1.07 2.29 1.07 1.21 0 1.94-.37 2.4-1.24.24-.48.34-1.07.34-2.18v-7.68h1.41v7.68c0 1.72-.17 2.48-.73 3.2-.75.99-1.8 1.41-3.42 1.41-1.72 0-2.86-.51-3.57-1.62-.44-.68-.58-1.41-.58-2.99v-7.68h1.41ZM152.68 119.2h1.05l.14.8c.48-.68 1.09-.97 2.04-.97.59 0 1.07.12 1.65.44l-.56 1.16c-.46-.31-.78-.41-1.21-.41-1.24 0-1.77 1-1.77 3.35v4.17h-1.34v-8.53ZM159.51 115.59h1.34v4.25c.63-.58 1.29-.82 2.33-.82 2.21 0 3.21 1.19 3.21 3.79v1.29c0 2.62-1 3.79-3.25 3.79-.83 0-1.53-.17-2.01-.49-.07-.03-.24-.17-.49-.41l-.08.73h-1.05v-12.14Zm5.54 7.31c0-1.87-.68-2.75-2.07-2.75s-2.12.87-2.12 2.62v1.39c0 1.75.71 2.62 2.12 2.62s2.07-.9 2.07-2.75v-1.12ZM173.74 122.12c0-.7-.08-1.04-.31-1.36-.29-.39-.85-.61-1.56-.61-.83 0-1.55.31-2.04.87l-.93-.71c.73-.85 1.75-1.27 3.09-1.27s2.26.42 2.74 1.24c.27.49.36 1 .36 2.06v5.41h-1.07l-.1-.61c-.54.56-1.19.77-2.48.77-2.19 0-2.99-.68-2.99-2.53 0-1.97.82-2.63 3.25-2.63h2.06v-.59Zm-1.92 1.62c-1.51 0-2.09.44-2.09 1.58s.49 1.45 2.01 1.45c.93 0 1.46-.17 1.77-.56.19-.24.24-.49.24-1.14v-1.33h-1.92ZM178.02 119.2h1.04l.1.95c.51-.78 1.24-1.12 2.41-1.12 1.51 0 2.48.54 2.87 1.65.17.49.25 1.16.25 2.16v4.9h-1.34v-4.78c0-1.99-.56-2.77-1.94-2.77-1.48 0-2.06.9-2.06 3.21v4.33h-1.34v-8.53ZM191.29 115.59h1.41v12.14h-1.41v-12.14ZM195.96 119.2H197l.1.95c.51-.78 1.24-1.12 2.41-1.12 1.51 0 2.48.54 2.87 1.65.17.49.25 1.16.25 2.16v4.9h-1.34v-4.78c0-1.99-.56-2.77-1.94-2.77-1.48 0-2.06.9-2.06 3.21v4.33h-1.34v-8.53ZM204.41 119.2h1.38l2.33 6.77 2.33-6.77h1.38l-3.09 8.53h-1.22l-3.09-8.53ZM214.76 124.09c0 1.73.83 2.67 2.38 2.67.9 0 1.46-.24 1.96-.83l1 .65c-.68.92-1.6 1.31-3.09 1.31-2.45 0-3.6-1.29-3.6-4.03v-.73c0-2.82 1.07-4.1 3.47-4.1s3.47 1.27 3.47 4.1v.61h-5.58v.36Zm4.28-1.38v-.14c0-.66-.17-1.29-.46-1.7-.36-.51-.87-.73-1.67-.73-.92 0-1.45.25-1.8.87-.22.41-.36.97-.36 1.56v.14h4.28ZM223.15 125.93c.6.61 1.17.83 2.29.83 1.45 0 2.16-.48 2.16-1.43 0-.49-.2-.87-.58-1.05-.34-.17-.56-.22-1.58-.36-1.17-.17-1.72-.34-2.12-.7-.46-.39-.68-.93-.68-1.67 0-1.63 1.02-2.53 2.82-2.53 1.44 0 2.43.42 3.09 1.36l-1.02.63c-.53-.63-1.05-.87-1.97-.87-1.05 0-1.63.48-1.63 1.34 0 .42.19.78.53.99.29.15.58.22 1.34.32 1.31.19 1.87.34 2.33.68.49.36.77 1.04.77 1.89 0 1.68-1.12 2.52-3.4 2.52-1.6 0-2.74-.46-3.33-1.33l.99-.63ZM230.66 120.32v-1.12h1.04l.07-2.74h1.28v2.74h1.68v1.12h-1.68v4.71c0 1.21.34 1.58 1.44 1.56h.29v1.14h-.31c-2.23 0-2.77-.54-2.77-2.84v-4.57h-1.04ZM237.12 115.54h1.34v1.8h-1.34v-1.8Zm0 3.65h1.34v8.53h-1.34v-8.53ZM246.7 127.07c-.56.58-1.28.82-2.36.82-2.19 0-3.2-1.19-3.2-3.77v-1.29c0-2.6 1-3.79 3.23-3.79 1.16 0 1.9.27 2.5.93l.1-.76h1.05v8.53c0 2.67-1.21 3.98-3.64 3.98-1.41 0-2.33-.41-2.97-1.34l1-.61c.49.61 1.04.87 1.92.87 1.58 0 2.29-.85 2.35-2.75l.02-.8Zm-4.22-3.04c0 1.85.66 2.74 2.07 2.74s2.12-.87 2.12-2.6v-1.39c0-1.73-.71-2.62-2.12-2.62s-2.07.88-2.07 2.75v1.12ZM255.69 122.12c0-.7-.08-1.04-.31-1.36-.29-.39-.85-.61-1.56-.61-.83 0-1.55.31-2.04.87l-.93-.71c.73-.85 1.75-1.27 3.09-1.27s2.26.42 2.74 1.24c.27.49.36 1 .36 2.06v5.41h-1.07l-.1-.61c-.54.56-1.19.77-2.48.77-2.19 0-2.99-.68-2.99-2.53 0-1.97.82-2.63 3.25-2.63h2.06v-.59Zm-1.92 1.62c-1.51 0-2.09.44-2.09 1.58s.49 1.45 2.01 1.45c.93 0 1.46-.17 1.77-.56.19-.24.24-.49.24-1.14v-1.33h-1.92ZM259.19 120.32v-1.12h1.04l.07-2.74h1.28v2.74h1.68v1.12h-1.68v4.71c0 1.21.34 1.58 1.44 1.56h.29v1.14H263c-2.23 0-2.77-.54-2.77-2.84v-4.57h-1.04ZM265.65 115.54h1.34v1.8h-1.34v-1.8Zm0 3.65h1.34v8.53h-1.34v-8.53ZM269.13 119.2h1.38l2.33 6.77 2.33-6.77h1.38l-3.09 8.53h-1.22l-3.09-8.53ZM279.48 124.09c0 1.73.83 2.67 2.38 2.67.9 0 1.46-.24 1.96-.83l1 .65c-.68.92-1.6 1.31-3.09 1.31-2.45 0-3.6-1.29-3.6-4.03v-.73c0-2.82 1.07-4.1 3.47-4.1s3.47 1.27 3.47 4.1v.61h-5.58v.36Zm4.28-1.38v-.14c0-.66-.17-1.29-.46-1.7-.36-.51-.87-.73-1.67-.73-.92 0-1.45.25-1.8.87-.22.41-.36.97-.36 1.56v.14h4.28ZM292.74 127.73h-1.41v-12.14h4.16c1.45 0 2.26.25 2.89.88.59.61.87 1.39.87 2.5 0 1.99-.8 3.04-2.5 3.37l2.67 5.39h-1.56l-2.5-5.24h-2.62v5.24Zm2.77-6.41c1.58 0 2.33-.73 2.33-2.28s-.78-2.28-2.48-2.28h-2.63v4.56h2.79ZM302.86 124.09c0 1.73.83 2.67 2.38 2.67.9 0 1.46-.24 1.96-.83l1 .65c-.68.92-1.6 1.31-3.09 1.31-2.45 0-3.6-1.29-3.6-4.03v-.73c0-2.82 1.07-4.1 3.47-4.1s3.47 1.27 3.47 4.1v.61h-5.58v.36Zm4.28-1.38v-.14c0-.66-.17-1.29-.46-1.7-.36-.51-.87-.73-1.67-.73-.92 0-1.45.25-1.8.87-.22.41-.36.97-.36 1.56v.14h4.28ZM311.04 119.2h1.05l.14.71c.58-.61 1.36-.88 2.48-.88 2.21 0 3.21 1.19 3.21 3.79v1.29c0 2.58-1 3.77-3.21 3.77-1 0-1.72-.24-2.33-.78v4.45h-1.34v-12.36Zm5.54 3.71c0-1.87-.68-2.75-2.07-2.75s-2.12.87-2.12 2.62v1.39c0 1.73.71 2.6 2.12 2.6s2.07-.88 2.07-2.74v-1.12ZM320.33 122.8c0-2.57 1.1-3.77 3.5-3.77s3.55 1.17 3.55 3.77v1.33c0 2.58-1.1 3.76-3.55 3.76s-3.5-1.19-3.5-3.76v-1.33Zm5.71.08c0-1.87-.7-2.74-2.19-2.74s-2.18.87-2.18 2.74v1.16c0 1.85.7 2.72 2.18 2.72s2.19-.87 2.19-2.72v-1.16ZM330.09 119.2h1.05l.14.8c.48-.68 1.09-.97 2.04-.97.59 0 1.07.12 1.65.44l-.56 1.16c-.46-.31-.78-.41-1.21-.41-1.24 0-1.77 1-1.77 3.35v4.17h-1.34v-8.53ZM336.53 120.32v-1.12h1.04l.07-2.74h1.28v2.74h1.68v1.12h-1.68v4.71c0 1.21.34 1.58 1.44 1.56h.29v1.14h-.31c-2.23 0-2.77-.54-2.77-2.84v-4.57h-1.04ZM342.98 115.54h1.34v1.8h-1.34v-1.8Zm0 3.65h1.34v8.53h-1.34v-8.53ZM347.32 119.2h1.04l.1.95c.51-.78 1.24-1.12 2.41-1.12 1.51 0 2.48.54 2.87 1.65.17.49.25 1.16.25 2.16v4.9h-1.34v-4.78c0-1.99-.56-2.77-1.94-2.77-1.48 0-2.06.9-2.06 3.21v4.33h-1.34v-8.53ZM362.17 127.07c-.56.58-1.28.82-2.36.82-2.19 0-3.2-1.19-3.2-3.77v-1.29c0-2.6 1-3.79 3.23-3.79 1.16 0 1.9.27 2.5.93l.1-.76h1.05v8.53c0 2.67-1.21 3.98-3.64 3.98-1.41 0-2.33-.41-2.97-1.34l1-.61c.49.61 1.04.87 1.92.87 1.58 0 2.29-.85 2.35-2.75l.02-.8Zm-4.22-3.04c0 1.85.66 2.74 2.07 2.74s2.12-.87 2.12-2.6v-1.39c0-1.73-.71-2.62-2.12-2.62s-2.07.88-2.07 2.75v1.12Z"/></svg>