<?xml version="1.0" encoding="UTF-8"?><svg id="a" xmlns="http://www.w3.org/2000/svg" viewBox="0 0 1481.31 141.22"><defs><style>.b{fill:#fff;}.c{fill:#769998;}</style></defs><g><path class="b" d="M71.55,88.55v46.9H0V3.22H146.88V135.48h-59.03v-46.93h-16.3Z"/><path class="b" d="M335.58,7.97h148.46V98.95h-148.46V7.97h0Z"/><path class="b" d="M352.55,107.06h5.69v28.06h-5.69v-28.06Z"/><path class="b" d="M428.23,134.52h-4.72v-28.07h4.72v28.07Z"/><path class="b" d="M484.01,134.53h-4.54v-27.76h4.54v27.76Z"/><path class="b" d="M443.61,135.16h-4.25v-29.29h4.25v29.29Z"/><path class="b" d="M415.83,106.12h4.13v29.03h-4.13v-29.03Z"/><path class="b" d="M349.9,134.85h-4.42v-28.66h4.42v28.66Z"/><path class="b" d="M475.76,136.13h-4.19v-28.4h4.19v28.4Z"/><path class="b" d="M384.01,135.47v-28.36h4.44v28.36h-4.44Z"/><path class="b" d="M397.45,107.41v28.38h-4.18v-28.38h4.18Z"/><path class="b" d="M341.99,135.47h-4.21v-28.39h4.21v28.39Z"/><path class="b" d="M447.27,134.84v-28.35h4.27v28.35h-4.27Z"/><path class="b" d="M459.74,134.52h-4.1v-28.4h4.1v28.4Z"/><path class="b" d="M462.99,106.75h4.44v28.08h-4.44v-28.08Z"/><path class="b" d="M400.58,106.76h4.22v28.08h-4.22v-28.08Z"/><path class="b" d="M369.02,106.77h4.23v28.08h-4.23s0-28.08,0-28.08Z"/><path class="b" d="M361.11,106.77h4.21v28.07h-4.21v-28.07Z"/><path class="b" d="M412.05,134.84h-3.59v-27.76h3.59v27.76Z"/><path class="b" d="M435.64,134.18h-3.51v-27.39h3.51v27.39Z"/><path class="b" d="M376.93,106.43h3.23v29.03h-3.23v-29.03Z"/></g><g><path class="c" d="M642.88,9.92V141.2h-64.67v-42.68h-11.32v42.7h-65.36V9.92h141.35Z"/><path class="c" d="M319.72,0V92.2H163.73V0h155.99Z"/><path class="c" d="M659.03,100.23V10.55h150.09V100.23h-150.09Z"/><path class="c" d="M175.17,98.23h6.13v28.58h-6.13v-28.58Z"/><path class="c" d="M189.83,126.23h-5.49v-29.2h5.49v29.2Z"/><path class="c" d="M309.83,98.24h5.4v27h-5.4v-27Z"/><path class="c" d="M299.68,127.18h-4.54v-29.52h4.54v29.52Z"/><path class="c" d="M287.55,98.86h4.86v27.31h-4.86v-27.31Z"/><path class="c" d="M263.28,98.23h4.85v26.98h-4.85v-26.98Z"/><path class="c" d="M222.84,125.88v-26.67h4.85v26.67h-4.85Z"/><path class="c" d="M197.11,125.56h-4.51v-28.26h4.51v28.26Z"/><path class="c" d="M763.5,105.17h4.18v28.04h-4.18v-28.04Z"/><path class="c" d="M207.98,99.17h4.14v27.66h-4.14v-27.66Z"/><path class="c" d="M782.95,133.24h-4.24v-27.37h4.24v27.37Z"/><path class="c" d="M205.06,125.9h-4.39v-27.3h4.39v27.3Z"/><path class="c" d="M689.91,131.94h-4v-26.39h4v26.39Z"/><path class="c" d="M255.36,98.86h4.23v26.35h-4.23v-26.35Z"/><path class="c" d="M219.8,126.54h-3.89v-28.24h3.89v28.24Z"/><path class="c" d="M681.65,134.2h-3.79v-28.08h3.79v28.08Z"/><path class="c" d="M303.09,98.22h3.84v27.99h-3.84v-27.99Z"/><path class="c" d="M770.47,105.49h3.95v27.73h-3.95v-27.73Z"/><path class="c" d="M275.75,126.54h-4.1v-27.65h4.1v27.65Z"/><path class="c" d="M172.98,124.61h-3.84v-26.98h3.84v26.98Z"/><path class="c" d="M743.22,105.23v28.31h-3.66v-28.31h3.66Z"/><path class="c" d="M735.56,133.56h-3.59v-28.05h3.59v28.05Z"/><path class="c" d="M665.83,134.2h-3.29v-28.96h3.29v28.96Z"/><path class="c" d="M283.1,126.54h-3.15v-28.26h3.15v28.26Z"/><path class="c" d="M711.61,133.22h-3.26v-28.01h3.26v28.01Z"/><path class="c" d="M785.74,132.88v-27.67h3.24v27.67h-3.24Z"/><path class="c" d="M673.73,133.22h-3.26v-27.38h3.26v27.38Z"/><path class="c" d="M793.45,132.89v-26.72h3.49v26.72h-3.49Z"/><path class="c" d="M235,125.88h-3.23v-26.67h3.23v26.67Z"/><path class="c" d="M750.13,132.6h-2.89v-27.71h2.89v27.71Z"/><path class="c" d="M250.99,125.89h-2.92v-27h2.92v27Z"/><path class="c" d="M704.65,130.03h-3.26v-24.47h3.26v24.47Z"/><path class="c" d="M758.07,133.55h-2.83v-28.31h2.83v28.31Z"/><path class="c" d="M244.56,127.18h-2.82v-27.94h2.82v27.94Z"/><path class="c" d="M801.39,133.22v-27.69h2.61v27.69h-2.61Z"/><path class="c" d="M693.51,105.79h2.56v27.43h-2.56v-27.43Z"/><path class="c" d="M726.91,132.92h-2.54v-27.05h2.54v27.05Z"/><path class="c" d="M717.04,104.85h2.48v27.71h-2.48v-27.71Z"/></g><path class="b" d="M869.29,81.11h46.06v-14.2h-28.5V10.69h-17.55V81.11Zm54.85-21.99c0,16.67,6.51,23.18,23.18,23.18s23.27-6.51,23.27-23.18v-7.69c0-16.67-6.51-23.18-23.18-23.18s-23.27,6.51-23.27,23.18v7.69Zm29.88-1.28c0,8.48-1.68,11.34-6.61,11.34s-6.71-2.86-6.71-11.34v-5.13c0-8.48,1.68-11.34,6.71-11.34s6.61,2.86,6.61,11.34v5.13Zm55.96,22.58c0,7.99-2.47,11.44-8.09,11.44-3.85,0-6.02-1.48-8.19-5.62l-12.13,6.71c3.65,7.89,10.36,11.54,20.91,11.54,8.48,0,15.09-2.56,19.03-7.3,3.55-4.04,5.03-9.76,5.03-18.74V29.43h-12.62l-1.68,2.37c-2.96-2.47-6.51-3.55-12.03-3.55-13.81,0-19.33,6.71-19.33,23.37v7.3c0,16.67,5.52,23.37,19.13,23.37,4.04,0,7.3-.69,9.96-2.17v.3Zm-12.62-27.52c0-8.19,1.87-11.54,6.41-11.54s6.21,2.37,6.21,7.99v11.93c0,5.52-1.87,7.89-6.21,7.89-4.64,0-6.41-3.25-6.41-11.54v-4.73Zm67.77-3.85h-8.58c-14.69,0-19.13,3.85-19.13,16.67,0,11.83,4.83,16.57,17.26,16.57,6.21,0,10.16-1.08,13.12-3.55l.99,2.37h12.92v-29.98c0-6.41-.49-10.26-1.68-13.12-2.66-6.51-9.27-9.76-19.53-9.76s-17.55,3.55-21.89,10.16l11.34,7.89c2.76-3.55,5.33-4.93,8.88-4.93,4.24,0,6.31,2.17,6.31,6.61v1.08Zm0,10.65v2.96c0,5.72-1.38,7.4-6.11,7.4-4.44,0-6.02-1.38-6.02-5.03,0-3.85,1.68-5.33,5.82-5.33h6.31Zm29.57,21.4h16.57v-27.02c0-8.68,1.58-11.64,6.21-11.64,4.24,0,5.82,3.06,5.82,11.14v27.52h16.57v-29.49c0-6.8-.39-10.55-1.48-13.41-2.47-6.51-8.28-9.96-16.77-9.96-6.21,0-9.86,1.28-13.22,4.54l-1.38-3.35h-12.33v51.68Zm115.3-21.99c-.79,6.51-3.55,9.07-9.76,9.07-7.1,0-8.97-3.35-8.97-15.68v-12.92c0-12.33,1.97-15.68,8.97-15.68,5.62,0,8.09,2.56,8.78,8.97l16.08-1.08c-.3-6.41-1.28-9.96-3.75-13.51-4.14-5.82-10.75-8.48-21.3-8.48-9.86,0-15.88,2.07-20.51,7.2-4.24,4.54-5.82,10.26-5.82,21.2v15.68c0,10.16,1.28,15.58,4.73,20.02,4.64,5.92,11.05,8.38,21.7,8.38,9.96,0,16.67-2.17,21.01-6.71,3.45-3.75,4.83-7.5,5.23-14.5l-16.37-1.97Zm42.78,.49h29.69v-5.42c0-18.74-6.41-25.94-23.18-25.94s-23.18,7.2-23.18,25.94v3.06c0,18.05,6.41,25.05,22.78,25.05,12.53,0,19.13-3.25,23.67-11.54l-12.23-6.71c-2.37,4.04-4.93,5.62-9.47,5.62-5.42,0-8.09-2.96-8.09-9.07v-.99Zm-.1-11.05v-1.28c0-4.44,2.66-7.2,7.1-7.2s7.1,2.66,7.1,7.1v1.38h-14.2Zm40.89,32.55h16.57v-27.02c0-8.68,1.58-11.64,6.21-11.64,4.24,0,5.82,3.06,5.82,11.14v27.52h16.57v-29.49c0-6.8-.39-10.55-1.48-13.41-2.47-6.51-8.28-9.96-16.77-9.96-6.21,0-9.86,1.28-13.22,4.54l-1.38-3.35h-12.33v51.68Zm59.28-38.66v12.92c-.1,21.6,3.94,25.74,24.95,25.74h1.68v-13.31h-.99c-7,.1-9.17-2.37-9.07-10.75v-14.6h10.36v-13.02h-10.36V15.63h-15.58l-.99,13.81h-5.42v13.02h5.42Zm51.78,17.16h29.69v-5.42c0-18.74-6.41-25.94-23.18-25.94s-23.18,7.2-23.18,25.94v3.06c0,18.05,6.41,25.05,22.78,25.05,12.53,0,19.13-3.25,23.67-11.54l-12.23-6.71c-2.37,4.04-4.93,5.62-9.47,5.62-5.42,0-8.09-2.96-8.09-9.07v-.99Zm-.1-11.05v-1.28c0-4.44,2.66-7.2,7.1-7.2s7.1,2.66,7.1,7.1v1.38h-14.2Zm40.88,32.55h16.57v-24.75c0-9.86,1.58-13.91,5.52-13.91,2.07,0,4.04,.89,6.61,3.06l7.2-13.61c-4.73-2.56-8.19-3.65-12.13-3.65-3.45,0-5.52,.99-9.07,3.94l-2.07-2.76h-12.62v51.68Zm-579.25,50.9h3.17v-12.25h10.73v-2.67h-10.73v-9.66h12.64v-2.67h-15.81v27.26Zm21.16-8.09c0,5.76,2.48,8.44,7.86,8.44s7.98-2.63,7.98-8.44v-2.98c0-5.84-2.48-8.48-7.98-8.48s-7.86,2.71-7.86,8.48v2.98Zm12.83-.19c0,4.16-1.57,6.11-4.92,6.11s-4.89-1.95-4.89-6.11v-2.6c0-4.2,1.57-6.15,4.89-6.15s4.92,1.95,4.92,6.15v2.6Zm10.54,8.28h3.02v-9.35c0-5.27,1.18-7.52,3.97-7.52,.95,0,1.68,.23,2.71,.92l1.26-2.6c-1.3-.73-2.37-.99-3.7-.99-2.14,0-3.51,.65-4.58,2.18l-.31-1.79h-2.37v19.16Zm25.38-27.26v17.26c0,3.55,.31,5.19,1.3,6.72,1.6,2.48,4.16,3.63,8.02,3.63,3.63,0,5.99-.95,7.67-3.17,1.26-1.6,1.64-3.32,1.64-7.18v-17.26h-3.17v17.26c0,2.48-.23,3.82-.76,4.89-1.03,1.95-2.67,2.79-5.38,2.79-2.56,0-4.05-.73-5.15-2.41-.73-1.18-.99-2.52-.99-5.27v-17.26h-3.17Zm27.18,27.26h3.02v-9.35c0-5.27,1.18-7.52,3.97-7.52,.95,0,1.68,.23,2.71,.92l1.26-2.6c-1.3-.73-2.37-.99-3.7-.99-2.14,0-3.51,.65-4.58,2.18l-.31-1.79h-2.37v19.16Zm16.82,0h2.37l.19-1.64c.57,.53,.95,.84,1.11,.92,1.07,.73,2.63,1.11,4.5,1.11,5.04,0,7.29-2.63,7.29-8.51v-2.9c0-5.84-2.25-8.51-7.22-8.51-2.33,0-3.82,.53-5.23,1.83v-9.54h-3.02v27.26Zm12.45-8.32c0,4.16-1.53,6.18-4.66,6.18s-4.77-1.95-4.77-5.88v-3.13c0-3.93,1.57-5.88,4.77-5.88s4.66,1.99,4.66,6.18v2.52Zm20.99-2.94h-4.62c-5.46,0-7.29,1.49-7.29,5.92,0,4.16,1.79,5.69,6.72,5.69,2.9,0,4.35-.46,5.57-1.72l.23,1.37h2.41v-12.14c0-2.37-.19-3.51-.8-4.62-1.07-1.83-3.17-2.79-6.15-2.79s-5.31,.95-6.95,2.86l2.1,1.6c1.11-1.26,2.71-1.95,4.58-1.95,1.6,0,2.86,.5,3.51,1.37,.5,.73,.69,1.49,.69,3.05v1.34Zm0,2.29v2.98c0,1.45-.11,2.02-.53,2.56-.69,.88-1.87,1.26-3.97,1.26-3.4,0-4.5-.8-4.5-3.25s1.3-3.55,4.7-3.55h4.31Zm11.1,8.97h3.02v-9.74c0-5.19,1.3-7.22,4.62-7.22,3.09,0,4.35,1.76,4.35,6.22v10.73h3.02v-10.99c0-2.25-.19-3.74-.57-4.85-.88-2.48-3.05-3.7-6.45-3.7-2.63,0-4.28,.76-5.42,2.52l-.23-2.14h-2.33v19.16Zm32.77,0h3.17v-27.26h-3.17v27.26Zm11.96,0h3.02v-9.74c0-5.19,1.3-7.22,4.62-7.22,3.09,0,4.35,1.76,4.35,6.22v10.73h3.02v-10.99c0-2.25-.19-3.74-.57-4.85-.88-2.48-3.05-3.7-6.45-3.7-2.63,0-4.28,.76-5.42,2.52l-.23-2.14h-2.33v19.16Zm27.41,0h2.75l6.95-19.16h-3.09l-5.23,15.19-5.23-15.19h-3.09l6.95,19.16Zm17.78-8.97h12.52v-1.37c0-6.34-2.41-9.2-7.79-9.2s-7.79,2.86-7.79,9.2v1.64c0,6.15,2.6,9.05,8.09,9.05,3.36,0,5.42-.88,6.95-2.94l-2.25-1.45c-1.11,1.34-2.37,1.87-4.39,1.87-3.47,0-5.34-2.1-5.34-5.99v-.8Zm0-2.29v-.31c0-1.34,.31-2.6,.8-3.51,.8-1.37,1.99-1.95,4.05-1.95,1.79,0,2.94,.5,3.74,1.64,.65,.92,1.03,2.33,1.03,3.82v.31h-9.62Zm18.09,8.63c1.34,1.95,3.89,2.98,7.48,2.98,5.12,0,7.64-1.87,7.64-5.65,0-1.91-.61-3.44-1.72-4.24-1.03-.76-2.29-1.11-5.23-1.53-1.72-.23-2.37-.38-3.02-.73-.76-.46-1.18-1.26-1.18-2.21,0-1.95,1.3-3.02,3.66-3.02,2.06,0,3.24,.53,4.43,1.95l2.29-1.41c-1.49-2.1-3.7-3.05-6.95-3.05-4.05,0-6.34,2.02-6.34,5.69,0,1.64,.5,2.86,1.53,3.74,.92,.8,2.14,1.18,4.77,1.57,2.29,.31,2.79,.42,3.55,.8,.84,.42,1.3,1.26,1.3,2.37,0,2.14-1.6,3.21-4.85,3.21-2.52,0-3.82-.5-5.15-1.87l-2.21,1.41Zm22.86-14.01v10.27c0,5.15,1.22,6.38,6.22,6.38h.69v-2.56h-.65c-2.48,.04-3.24-.8-3.24-3.51v-10.57h3.78v-2.52h-3.78v-6.15h-2.86l-.15,6.15h-2.33v2.52h2.33Zm13.64-6.68h3.02v-4.05h-3.02v4.05Zm0,23.33h3.02v-19.16h-3.02v19.16Zm22.95,.31c-.11,4.28-1.72,6.18-5.27,6.18-1.99,0-3.21-.57-4.32-1.95l-2.25,1.37c1.45,2.1,3.51,3.02,6.68,3.02,5.46,0,8.17-2.94,8.17-8.93v-19.16h-2.37l-.23,1.72c-1.34-1.49-3.02-2.1-5.61-2.1-5,0-7.25,2.67-7.25,8.51v2.9c0,5.8,2.25,8.48,7.18,8.48,2.44,0,4.05-.53,5.31-1.83l-.04,1.79Zm-9.43-11.15c0-4.2,1.49-6.18,4.66-6.18s4.77,1.99,4.77,5.88v3.13c0,3.89-1.6,5.84-4.77,5.84s-4.66-1.99-4.66-6.15v-2.52Zm31.14-.42h-4.62c-5.46,0-7.29,1.49-7.29,5.92,0,4.16,1.79,5.69,6.72,5.69,2.9,0,4.35-.46,5.57-1.72l.23,1.37h2.41v-12.14c0-2.37-.19-3.51-.8-4.62-1.07-1.83-3.17-2.79-6.15-2.79s-5.31,.95-6.95,2.86l2.1,1.6c1.11-1.26,2.71-1.95,4.58-1.95,1.6,0,2.86,.5,3.51,1.37,.5,.73,.69,1.49,.69,3.05v1.34Zm0,2.29v2.98c0,1.45-.11,2.02-.53,2.56-.69,.88-1.87,1.26-3.97,1.26-3.4,0-4.5-.8-4.5-3.25s1.3-3.55,4.7-3.55h4.31Zm11.68-7.67v10.27c0,5.15,1.22,6.38,6.22,6.38h.69v-2.56h-.65c-2.48,.04-3.25-.8-3.25-3.51v-10.57h3.78v-2.52h-3.78v-6.15h-2.86l-.15,6.15h-2.33v2.52h2.33Zm13.64-6.68h3.02v-4.05h-3.02v4.05Zm0,23.33h3.02v-19.16h-3.02v19.16Zm16.22,0h2.75l6.95-19.16h-3.09l-5.23,15.19-5.23-15.19h-3.09l6.95,19.16Zm17.78-8.97h12.52v-1.37c0-6.34-2.41-9.2-7.79-9.2s-7.79,2.86-7.79,9.2v1.64c0,6.15,2.6,9.05,8.09,9.05,3.36,0,5.42-.88,6.95-2.94l-2.25-1.45c-1.11,1.34-2.37,1.87-4.39,1.87-3.47,0-5.34-2.1-5.34-5.99v-.8Zm0-2.29v-.31c0-1.34,.31-2.6,.8-3.51,.8-1.37,1.99-1.95,4.05-1.95,1.79,0,2.94,.5,3.74,1.64,.65,.92,1.03,2.33,1.03,3.82v.31h-9.62Zm32.71-.5h5.88l5.61,11.76h3.51l-5.99-12.1c3.82-.73,5.61-3.09,5.61-7.56,0-2.48-.61-4.24-1.95-5.61-1.41-1.41-3.25-1.99-6.49-1.99h-9.35v27.26h3.17v-11.76Zm-.04-2.63v-10.23h5.92c3.82,0,5.57,1.6,5.57,5.12s-1.68,5.12-5.23,5.12h-6.26Zm24.28,5.42h12.52v-1.37c0-6.34-2.41-9.2-7.79-9.2s-7.79,2.86-7.79,9.2v1.64c0,6.15,2.6,9.05,8.09,9.05,3.36,0,5.42-.88,6.95-2.94l-2.25-1.45c-1.11,1.34-2.37,1.87-4.39,1.87-3.47,0-5.34-2.1-5.34-5.99v-.8Zm0-2.29v-.31c0-1.34,.31-2.6,.8-3.51,.8-1.37,1.99-1.95,4.05-1.95,1.79,0,2.94,.5,3.74,1.64,.65,.92,1.03,2.33,1.03,3.82v.31h-9.62Zm19.83,19.85h3.02v-10c1.37,1.22,2.98,1.76,5.23,1.76,4.96,0,7.22-2.67,7.22-8.48v-2.9c0-5.84-2.25-8.51-7.22-8.51-2.52,0-4.28,.61-5.57,1.99l-.31-1.6h-2.37v27.75Zm12.45-16.91c0,4.16-1.53,6.15-4.66,6.15s-4.77-1.95-4.77-5.84v-3.13c0-3.93,1.6-5.88,4.77-5.88s4.66,1.99,4.66,6.18v2.52Zm9.92,.23c0,5.76,2.48,8.44,7.86,8.44s7.98-2.63,7.98-8.44v-2.98c0-5.84-2.48-8.48-7.98-8.48s-7.86,2.71-7.86,8.48v2.98Zm12.83-.19c0,4.16-1.57,6.11-4.92,6.11s-4.89-1.95-4.89-6.11v-2.6c0-4.2,1.57-6.15,4.89-6.15s4.92,1.95,4.92,6.15v2.6Zm10.54,8.28h3.02v-9.35c0-5.27,1.18-7.52,3.97-7.52,.95,0,1.68,.23,2.71,.92l1.26-2.6c-1.3-.73-2.37-.99-3.7-.99-2.14,0-3.51,.65-4.58,2.18l-.31-1.79h-2.37v19.16Zm18.25-16.64v10.27c0,5.15,1.22,6.38,6.22,6.38h.69v-2.56h-.65c-2.48,.04-3.25-.8-3.25-3.51v-10.57h3.78v-2.52h-3.78v-6.15h-2.86l-.15,6.15h-2.33v2.52h2.33Zm13.64-6.68h3.02v-4.05h-3.02v4.05Zm0,23.33h3.02v-19.16h-3.02v19.16Zm11.2,0h3.02v-9.74c0-5.19,1.3-7.22,4.62-7.22,3.09,0,4.35,1.76,4.35,6.22v10.73h3.02v-10.99c0-2.25-.19-3.74-.57-4.85-.88-2.48-3.05-3.7-6.45-3.7-2.63,0-4.28,.76-5.42,2.52l-.23-2.14h-2.33v19.16Zm34.81,.31c-.11,4.28-1.72,6.18-5.27,6.18-1.99,0-3.21-.57-4.31-1.95l-2.25,1.37c1.45,2.1,3.51,3.02,6.68,3.02,5.46,0,8.17-2.94,8.17-8.93v-19.16h-2.37l-.23,1.72c-1.34-1.49-3.02-2.1-5.61-2.1-5,0-7.25,2.67-7.25,8.51v2.9c0,5.8,2.25,8.48,7.18,8.48,2.44,0,4.05-.53,5.31-1.83l-.04,1.79Zm-9.43-11.15c0-4.2,1.49-6.18,4.66-6.18s4.77,1.99,4.77,5.88v3.13c0,3.89-1.6,5.84-4.77,5.84s-4.66-1.99-4.66-6.15v-2.52Z"/></svg>