<svg width="194" height="42" viewBox="0 0 194 42" fill="none" xmlns="http://www.w3.org/2000/svg">
<path d="M1.232 23H15.709V18.536H6.75V0.865999H1.232V23ZM18.4741 16.087C18.4741 21.326 20.5201 23.372 25.7591 23.372C31.0291 23.372 33.0751 21.326 33.0751 16.087V13.669C33.0751 8.43 31.0291 6.384 25.7901 6.384C20.5201 6.384 18.4741 8.43 18.4741 13.669V16.087ZM27.8671 15.684C27.8671 18.35 27.3401 19.249 25.7901 19.249C24.2091 19.249 23.6821 18.35 23.6821 15.684V14.072C23.6821 11.406 24.2091 10.507 25.7901 10.507C27.3401 10.507 27.8671 11.406 27.8671 14.072V15.684ZM45.4561 22.783C45.4561 25.294 44.6811 26.379 42.9141 26.379C41.7051 26.379 41.0231 25.914 40.3411 24.612L36.5281 26.72C37.6751 29.2 39.7831 30.347 43.1001 30.347C45.7661 30.347 47.8431 29.541 49.0831 28.053C50.1991 26.782 50.6641 24.984 50.6641 22.163V6.756H46.6961L46.1691 7.5C45.2391 6.725 44.1231 6.384 42.3871 6.384C38.0471 6.384 36.3111 8.492 36.3111 13.731V16.025C36.3111 21.264 38.0471 23.372 42.3251 23.372C43.5961 23.372 44.6191 23.155 45.4561 22.69V22.783ZM41.4881 14.134C41.4881 11.561 42.0771 10.507 43.5031 10.507C44.8671 10.507 45.4561 11.251 45.4561 13.018V16.769C45.4561 18.505 44.8671 19.249 43.5031 19.249C42.0461 19.249 41.4881 18.226 41.4881 15.622V14.134ZM62.7905 12.925H60.0935C55.4745 12.925 54.0795 14.134 54.0795 18.164C54.0795 21.884 55.5985 23.372 59.5045 23.372C61.4575 23.372 62.6975 23.031 63.6275 22.256L63.9375 23H67.9985V13.576C67.9985 11.561 67.8435 10.352 67.4715 9.453C66.6345 7.407 64.5575 6.384 61.3335 6.384C58.2025 6.384 55.8155 7.5 54.4515 9.577L58.0165 12.057C58.8845 10.941 59.6905 10.507 60.8065 10.507C62.1395 10.507 62.7905 11.189 62.7905 12.584V12.925ZM62.7905 16.273V17.203C62.7905 19.001 62.3565 19.528 60.8685 19.528C59.4735 19.528 58.9775 19.094 58.9775 17.947C58.9775 16.738 59.5045 16.273 60.8065 16.273H62.7905ZM72.0867 23H77.2947V14.506C77.2947 11.778 77.7907 10.848 79.2477 10.848C80.5807 10.848 81.0767 11.809 81.0767 14.351V23H86.2847V13.731C86.2847 11.592 86.1607 10.414 85.8197 9.515C85.0447 7.469 83.2157 6.384 80.5497 6.384C78.5967 6.384 77.4497 6.787 76.3957 7.81L75.9617 6.756H72.0867V23ZM108.328 16.087C108.08 18.133 107.212 18.939 105.259 18.939C103.027 18.939 102.438 17.885 102.438 14.01V9.949C102.438 6.074 103.058 5.02 105.259 5.02C107.026 5.02 107.801 5.826 108.018 7.841L113.071 7.5C112.978 5.485 112.668 4.369 111.893 3.253C110.591 1.424 108.514 0.586998 105.197 0.586998C102.097 0.586998 100.206 1.238 98.7488 2.85C97.4158 4.276 96.9198 6.074 96.9198 9.515V14.444C96.9198 17.637 97.3228 19.342 98.4078 20.737C99.8648 22.597 101.88 23.372 105.228 23.372C108.359 23.372 110.467 22.69 111.831 21.264C112.916 20.086 113.35 18.908 113.474 16.707L108.328 16.087ZM121.774 16.242H131.105V14.537C131.105 8.647 129.09 6.384 123.82 6.384C118.55 6.384 116.535 8.647 116.535 14.537V15.498C116.535 21.171 118.55 23.372 123.696 23.372C127.633 23.372 129.71 22.349 131.136 19.745L127.292 17.637C126.548 18.908 125.742 19.404 124.316 19.404C122.611 19.404 121.774 18.474 121.774 16.552V16.242ZM121.743 12.77V12.367C121.743 10.972 122.58 10.104 123.975 10.104C125.37 10.104 126.207 10.941 126.207 12.336V12.77H121.743ZM134.595 23H139.803V14.506C139.803 11.778 140.299 10.848 141.756 10.848C143.089 10.848 143.585 11.809 143.585 14.351V23H148.793V13.731C148.793 11.592 148.669 10.414 148.328 9.515C147.553 7.469 145.724 6.384 143.058 6.384C141.105 6.384 139.958 6.787 138.904 7.81L138.47 6.756H134.595V23ZM153.227 10.848V14.909C153.196 21.698 154.467 23 161.07 23H161.597V18.815H161.287C159.086 18.846 158.404 18.071 158.435 15.436V10.848H161.69V6.756H158.435V2.416H153.537L153.227 6.756H151.522V10.848H153.227ZM169.503 16.242H178.834V14.537C178.834 8.647 176.819 6.384 171.549 6.384C166.279 6.384 164.264 8.647 164.264 14.537V15.498C164.264 21.171 166.279 23.372 171.425 23.372C175.362 23.372 177.439 22.349 178.865 19.745L175.021 17.637C174.277 18.908 173.471 19.404 172.045 19.404C170.34 19.404 169.503 18.474 169.503 16.552V16.242ZM169.472 12.77V12.367C169.472 10.972 170.309 10.104 171.704 10.104C173.099 10.104 173.936 10.941 173.936 12.336V12.77H169.472ZM182.323 23H187.531V15.219C187.531 12.119 188.027 10.848 189.267 10.848C189.918 10.848 190.538 11.127 191.344 11.809L193.607 7.531C192.119 6.725 191.034 6.384 189.794 6.384C188.709 6.384 188.058 6.694 186.942 7.624L186.291 6.756H182.323V23ZM0.248 39H1.244V35.148H4.616V34.308H1.244V31.272H5.216V30.432H0.248V39ZM6.89794 36.456C6.89794 38.268 7.67794 39.108 9.36994 39.108C11.0979 39.108 11.8779 38.28 11.8779 36.456V35.52C11.8779 33.684 11.0979 32.856 9.36994 32.856C7.67794 32.856 6.89794 33.708 6.89794 35.52V36.456ZM10.9299 36.396C10.9299 37.704 10.4379 38.316 9.38194 38.316C8.33794 38.316 7.84594 37.704 7.84594 36.396V35.58C7.84594 34.26 8.33794 33.648 9.38194 33.648C10.4379 33.648 10.9299 34.26 10.9299 35.58V36.396ZM14.2416 39H15.1896V36.06C15.1896 34.404 15.5616 33.696 16.4376 33.696C16.7376 33.696 16.9656 33.768 17.2896 33.984L17.6856 33.168C17.2776 32.94 16.9416 32.856 16.5216 32.856C15.8496 32.856 15.4176 33.06 15.0816 33.54L14.9856 32.976H14.2416V39ZM22.22 30.432V35.856C22.22 36.972 22.316 37.488 22.628 37.968C23.132 38.748 23.936 39.108 25.148 39.108C26.288 39.108 27.032 38.808 27.56 38.112C27.956 37.608 28.076 37.068 28.076 35.856V30.432H27.08V35.856C27.08 36.636 27.008 37.056 26.84 37.392C26.516 38.004 26 38.268 25.148 38.268C24.344 38.268 23.876 38.04 23.528 37.512C23.3 37.14 23.216 36.72 23.216 35.856V30.432H22.22ZM30.7622 39H31.7102V36.06C31.7102 34.404 32.0822 33.696 32.9582 33.696C33.2582 33.696 33.4862 33.768 33.8102 33.984L34.2062 33.168C33.7982 32.94 33.4622 32.856 33.0422 32.856C32.3702 32.856 31.9382 33.06 31.6022 33.54L31.5062 32.976H30.7622V39ZM36.0507 39H36.7947L36.8547 38.484C37.0347 38.652 37.1547 38.748 37.2027 38.772C37.5387 39 38.0307 39.12 38.6187 39.12C40.2027 39.12 40.9107 38.292 40.9107 36.444V35.532C40.9107 33.696 40.2027 32.856 38.6427 32.856C37.9107 32.856 37.4427 33.024 36.9987 33.432V30.432H36.0507V39ZM39.9627 36.384C39.9627 37.692 39.4827 38.328 38.4987 38.328C37.5027 38.328 36.9987 37.716 36.9987 36.48V35.496C36.9987 34.26 37.4907 33.648 38.4987 33.648C39.4827 33.648 39.9627 34.272 39.9627 35.592V36.384ZM46.5598 35.46H45.1078C43.3918 35.46 42.8158 35.928 42.8158 37.32C42.8158 38.628 43.3798 39.108 44.9278 39.108C45.8398 39.108 46.2958 38.964 46.6798 38.568L46.7518 39H47.5078V35.184C47.5078 34.44 47.4478 34.08 47.2558 33.732C46.9198 33.156 46.2598 32.856 45.3238 32.856C44.3758 32.856 43.6558 33.156 43.1398 33.756L43.7998 34.26C44.1478 33.864 44.6518 33.648 45.2398 33.648C45.7438 33.648 46.1398 33.804 46.3438 34.08C46.4998 34.308 46.5598 34.548 46.5598 35.04V35.46ZM46.5598 36.18V37.116C46.5598 37.572 46.5238 37.752 46.3918 37.92C46.1758 38.196 45.8038 38.316 45.1438 38.316C44.0758 38.316 43.7278 38.064 43.7278 37.296C43.7278 36.492 44.1358 36.18 45.2038 36.18H46.5598ZM50.0485 39H50.9965V35.94C50.9965 34.308 51.4045 33.672 52.4485 33.672C53.4205 33.672 53.8165 34.224 53.8165 35.628V39H54.7645V35.544C54.7645 34.836 54.7045 34.368 54.5845 34.02C54.3085 33.24 53.6245 32.856 52.5565 32.856C51.7285 32.856 51.2125 33.096 50.8525 33.648L50.7805 32.976H50.0485V39ZM60.348 39H61.344V30.432H60.348V39ZM64.1082 39H65.0562V35.94C65.0562 34.308 65.4642 33.672 66.5082 33.672C67.4802 33.672 67.8762 34.224 67.8762 35.628V39H68.8242V35.544C68.8242 34.836 68.7642 34.368 68.6442 34.02C68.3682 33.24 67.6842 32.856 66.6162 32.856C65.7882 32.856 65.2722 33.096 64.9122 33.648L64.8402 32.976H64.1082V39ZM72.723 39H73.587L75.771 32.976H74.799L73.155 37.752L71.511 32.976H70.539L72.723 39ZM78.3115 36.18H82.2475V35.748C82.2475 33.756 81.4915 32.856 79.7995 32.856C78.1075 32.856 77.3515 33.756 77.3515 35.748V36.264C77.3515 38.196 78.1675 39.108 79.8955 39.108C80.9515 39.108 81.5995 38.832 82.0795 38.184L81.3715 37.728C81.0235 38.148 80.6275 38.316 79.9915 38.316C78.8995 38.316 78.3115 37.656 78.3115 36.432V36.18ZM78.3115 35.46V35.364C78.3115 34.944 78.4075 34.548 78.5635 34.26C78.8155 33.828 79.1875 33.648 79.8355 33.648C80.3995 33.648 80.7595 33.804 81.0115 34.164C81.2155 34.452 81.3355 34.896 81.3355 35.364V35.46H78.3115ZM83.9989 38.172C84.4189 38.784 85.2229 39.108 86.3509 39.108C87.9589 39.108 88.7509 38.52 88.7509 37.332C88.7509 36.732 88.5589 36.252 88.2109 36C87.8869 35.76 87.4909 35.652 86.5669 35.52C86.0269 35.448 85.8229 35.4 85.6189 35.292C85.3789 35.148 85.2469 34.896 85.2469 34.596C85.2469 33.984 85.6549 33.648 86.3989 33.648C87.0469 33.648 87.4189 33.816 87.7909 34.26L88.5109 33.816C88.0429 33.156 87.3469 32.856 86.3269 32.856C85.0549 32.856 84.3349 33.492 84.3349 34.644C84.3349 35.16 84.4909 35.544 84.8149 35.82C85.1029 36.072 85.4869 36.192 86.3149 36.312C87.0349 36.408 87.1909 36.444 87.4309 36.564C87.6949 36.696 87.8389 36.96 87.8389 37.308C87.8389 37.98 87.3349 38.316 86.3149 38.316C85.5229 38.316 85.1149 38.16 84.6949 37.728L83.9989 38.172ZM91.1834 33.768V36.996C91.1834 38.616 91.5674 39 93.1394 39H93.3554V38.196H93.1514C92.3714 38.208 92.1314 37.944 92.1314 37.092V33.768H93.3194V32.976H92.1314V31.044H91.2314L91.1834 32.976H90.4514V33.768H91.1834ZM95.4707 31.668H96.4187V30.396H95.4707V31.668ZM95.4707 39H96.4187V32.976H95.4707V39ZM102.686 39.096C102.65 40.44 102.146 41.04 101.03 41.04C100.406 41.04 100.022 40.86 99.6736 40.428L98.9656 40.86C99.4216 41.52 100.07 41.808 101.066 41.808C102.782 41.808 103.634 40.884 103.634 39V32.976H102.89L102.818 33.516C102.398 33.048 101.87 32.856 101.054 32.856C99.4816 32.856 98.7736 33.696 98.7736 35.532V36.444C98.7736 38.268 99.4816 39.108 101.03 39.108C101.798 39.108 102.302 38.94 102.698 38.532L102.686 39.096ZM99.7216 35.592C99.7216 34.272 100.19 33.648 101.186 33.648C102.182 33.648 102.686 34.272 102.686 35.496V36.48C102.686 37.704 102.182 38.316 101.186 38.316C100.19 38.316 99.7216 37.692 99.7216 36.384V35.592ZM109.51 35.46H108.058C106.342 35.46 105.766 35.928 105.766 37.32C105.766 38.628 106.33 39.108 107.878 39.108C108.79 39.108 109.246 38.964 109.63 38.568L109.702 39H110.458V35.184C110.458 34.44 110.398 34.08 110.206 33.732C109.87 33.156 109.21 32.856 108.274 32.856C107.326 32.856 106.606 33.156 106.09 33.756L106.75 34.26C107.098 33.864 107.602 33.648 108.19 33.648C108.694 33.648 109.09 33.804 109.294 34.08C109.45 34.308 109.51 34.548 109.51 35.04V35.46ZM109.51 36.18V37.116C109.51 37.572 109.474 37.752 109.342 37.92C109.126 38.196 108.754 38.316 108.094 38.316C107.026 38.316 106.678 38.064 106.678 37.296C106.678 36.492 107.086 36.18 108.154 36.18H109.51ZM113.18 33.768V36.996C113.18 38.616 113.564 39 115.136 39H115.352V38.196H115.148C114.368 38.208 114.128 37.944 114.128 37.092V33.768H115.316V32.976H114.128V31.044H113.228L113.18 32.976H112.448V33.768H113.18ZM117.467 31.668H118.415V30.396H117.467V31.668ZM117.467 39H118.415V32.976H117.467V39ZM122.566 39H123.43L125.614 32.976H124.642L122.998 37.752L121.354 32.976H120.382L122.566 39ZM128.155 36.18H132.091V35.748C132.091 33.756 131.335 32.856 129.643 32.856C127.951 32.856 127.195 33.756 127.195 35.748V36.264C127.195 38.196 128.011 39.108 129.739 39.108C130.795 39.108 131.443 38.832 131.923 38.184L131.215 37.728C130.867 38.148 130.471 38.316 129.835 38.316C128.743 38.316 128.155 37.656 128.155 36.432V36.18ZM128.155 35.46V35.364C128.155 34.944 128.251 34.548 128.407 34.26C128.659 33.828 129.031 33.648 129.679 33.648C130.243 33.648 130.603 33.804 130.855 34.164C131.059 34.452 131.179 34.896 131.179 35.364V35.46H128.155ZM138.437 35.304H140.285L142.049 39H143.153L141.269 35.196C142.469 34.968 143.033 34.224 143.033 32.82C143.033 32.04 142.841 31.488 142.421 31.056C141.977 30.612 141.401 30.432 140.381 30.432H137.441V39H138.437V35.304ZM138.425 34.476V31.26H140.285C141.485 31.26 142.037 31.764 142.037 32.868C142.037 33.96 141.509 34.476 140.393 34.476H138.425ZM146.058 36.18H149.994V35.748C149.994 33.756 149.238 32.856 147.546 32.856C145.854 32.856 145.098 33.756 145.098 35.748V36.264C145.098 38.196 145.914 39.108 147.642 39.108C148.698 39.108 149.346 38.832 149.826 38.184L149.118 37.728C148.77 38.148 148.374 38.316 147.738 38.316C146.646 38.316 146.058 37.656 146.058 36.432V36.18ZM146.058 35.46V35.364C146.058 34.944 146.154 34.548 146.31 34.26C146.562 33.828 146.934 33.648 147.582 33.648C148.146 33.648 148.506 33.804 148.758 34.164C148.962 34.452 149.082 34.896 149.082 35.364V35.46H146.058ZM152.29 41.7H153.238V38.556C153.67 38.94 154.174 39.108 154.882 39.108C156.442 39.108 157.15 38.268 157.15 36.444V35.532C157.15 33.696 156.442 32.856 154.882 32.856C154.09 32.856 153.538 33.048 153.13 33.48L153.034 32.976H152.29V41.7ZM156.202 36.384C156.202 37.692 155.722 38.316 154.738 38.316C153.742 38.316 153.238 37.704 153.238 36.48V35.496C153.238 34.26 153.742 33.648 154.738 33.648C155.722 33.648 156.202 34.272 156.202 35.592V36.384ZM159.319 36.456C159.319 38.268 160.099 39.108 161.791 39.108C163.519 39.108 164.299 38.28 164.299 36.456V35.52C164.299 33.684 163.519 32.856 161.791 32.856C160.099 32.856 159.319 33.708 159.319 35.52V36.456ZM163.351 36.396C163.351 37.704 162.859 38.316 161.803 38.316C160.759 38.316 160.267 37.704 160.267 36.396V35.58C160.267 34.26 160.759 33.648 161.803 33.648C162.859 33.648 163.351 34.26 163.351 35.58V36.396ZM166.663 39H167.611V36.06C167.611 34.404 167.983 33.696 168.859 33.696C169.159 33.696 169.387 33.768 169.711 33.984L170.107 33.168C169.699 32.94 169.363 32.856 168.943 32.856C168.271 32.856 167.839 33.06 167.503 33.54L167.407 32.976H166.663V39ZM172.401 33.768V36.996C172.401 38.616 172.785 39 174.357 39H174.573V38.196H174.369C173.589 38.208 173.349 37.944 173.349 37.092V33.768H174.537V32.976H173.349V31.044H172.449L172.401 32.976H171.669V33.768H172.401ZM176.688 31.668H177.636V30.396H176.688V31.668ZM176.688 39H177.636V32.976H176.688V39ZM180.207 39H181.155V35.94C181.155 34.308 181.563 33.672 182.607 33.672C183.579 33.672 183.975 34.224 183.975 35.628V39H184.923V35.544C184.923 34.836 184.863 34.368 184.743 34.02C184.467 33.24 183.783 32.856 182.715 32.856C181.887 32.856 181.371 33.096 181.011 33.648L180.939 32.976H180.207V39ZM191.148 39.096C191.112 40.44 190.608 41.04 189.492 41.04C188.868 41.04 188.484 40.86 188.136 40.428L187.428 40.86C187.884 41.52 188.532 41.808 189.528 41.808C191.244 41.808 192.096 40.884 192.096 39V32.976H191.352L191.28 33.516C190.86 33.048 190.332 32.856 189.516 32.856C187.944 32.856 187.236 33.696 187.236 35.532V36.444C187.236 38.268 187.944 39.108 189.492 39.108C190.26 39.108 190.764 38.94 191.16 38.532L191.148 39.096ZM188.184 35.592C188.184 34.272 188.652 33.648 189.648 33.648C190.644 33.648 191.148 34.272 191.148 35.496V36.48C191.148 37.704 190.644 38.316 189.648 38.316C188.652 38.316 188.184 37.692 188.184 36.384V35.592Z" fill="white"/>
</svg>
