<?xml version="1.0" standalone="no"?>
<!DOCTYPE svg PUBLIC "-//W3C//DTD SVG 20010904//EN"
 "http://www.w3.org/TR/2001/REC-SVG-20010904/DTD/svg10.dtd">
<svg version="1.0" xmlns="http://www.w3.org/2000/svg"
 width="505.000000pt" height="505.000000pt" viewBox="0 0 505.000000 505.000000"
 preserveAspectRatio="xMidYMid meet">
<metadata>
Created by potrace 1.14, written by Peter Selinger 2001-2017
</metadata>
<g transform="translate(0.000000,505.000000) scale(0.100000,-0.100000)"
fill="#000000" stroke="none">
<path d="M20 2525 l0 -2505 2500 0 2500 0 0 2505 0 2505 -2500 0 -2500 0 0
-2505z m4180 1275 l0 -680 -140 0 -140 0 0 545 0 545 -1390 0 -1390 0 -2 -542
-3 -543 -147 -3 -148 -3 0 681 0 680 1680 0 1680 0 0 -680z m-600 -300 l0
-380 -145 0 -145 0 0 235 0 235 -165 0 -165 0 0 -1070 0 -1070 243 -2 242 -3
0 -140 0 -140 -385 0 -385 0 -3 1345 c-1 740 0 1351 3 1358 3 9 104 12 455 12
l450 0 0 -380z m-1240 -985 l0 -1355 -385 0 -385 0 0 140 0 140 240 0 240 0 0
1075 0 1075 -160 0 -160 0 -2 -232 -3 -233 -142 -3 -143 -3 0 376 0 375 450 0
450 0 0 -1355z m1110 -1810 l0 -135 -940 0 -940 0 0 135 0 135 940 0 940 0 0
-135z"/>
</g>
</svg>
