<svg xmlns="http://www.w3.org/2000/svg" viewBox="0 0 5520 286"><defs><clipPath id="a"><path d="M0 0h5520v286H0z" style="fill:none"/></clipPath></defs><g style="clip-path:url(#a)"><path d="M305.46-118.79h53.15v536.95h-53.15v-536.95Zm706.39 525.44h-44.03v-537.08h44.03v537.08Zm520.57.1h-42.38v-531.19h42.38v531.19Zm-377.04 12.11h-39.63v-560.51h39.63v560.51ZM896.1-136.93h38.57v555.45H896.1v-555.45ZM280.74 412.84h-41.21v-548.49h41.21v548.49Zm1174.68 24.52h-39.14v-543.44h39.14v543.44Zm-856.34-12.49V-117.8h41.46v542.67h-41.46Zm125.47-537.13v543.17h-39.06v-543.17h39.06Zm-517.67 537.1h-39.29v-543.2h39.29v543.2Zm982.61-12.16v-542.47h39.83v542.47h-39.83Zm116.46-6.04h-38.31v-543.41h38.31v543.41Zm30.3-531.39h41.48v537.34h-41.48v-537.34Zm-582.52.21h39.37v537.31h-39.37v-537.31Zm-294.59.06h39.46v537.32h-39.46v-537.32Zm-73.78.06h39.26v537.06h-39.26v-537.06Zm475.4 537.23h-33.52v-531.22h33.52v531.22Zm220.21-12.76h-32.79v-524.07h32.79v524.07ZM533.05-130.97h30.18v555.43h-30.18v-555.43Zm1184.09-12.54h53.15v536.95h-53.15v-536.95Zm706.39 525.44h-44.03v-537.08h44.03v537.08Zm520.56.1h-42.38v-531.19h42.38v531.19Zm-377.03 12.11h-39.63v-560.51h39.63v560.51Zm-259.28-555.79h38.57V393.8h-38.57v-555.45Zm-615.37 549.77h-41.21v-548.49h41.21v548.49Zm1174.69 24.52h-39.14V-130.8h39.14v543.44Zm-856.34-12.49v-542.67h41.46v542.67h-41.46Zm125.46-537.13v543.17h-39.06v-543.17h39.06Zm-517.67 537.1h-39.29v-543.2h39.29v543.2Zm982.61-12.16v-542.47h39.83v542.47h-39.83Zm116.46-6.04h-38.31v-543.41h38.31v543.41Zm30.31-531.39h41.48v537.34h-41.48v-537.34Zm-582.53.21h39.37v537.31h-39.37v-537.31Zm-294.58.06h39.46v537.32h-39.46V-149.2Zm-73.78.06h39.26v537.06h-39.26v-537.06Zm475.39 537.23h-33.52v-531.22h33.52v531.22Zm220.21-12.76h-32.79v-524.07h32.79v524.07Zm-547.91-531.02h30.18v555.43h-30.18v-555.43Zm1182.73 15.28h53.15v536.96h-53.15v-536.96Zm706.38 525.44h-44.03v-537.07h44.03v537.07Zm520.57.1h-42.38v-531.18h42.38v531.18Zm-377.04 12.12h-39.63v-560.51h39.63v560.51ZM3718.1-158.54h38.57V396.9h-38.57v-555.44Zm-615.37 549.77h-41.21v-548.49h41.21v548.49Zm1174.68 24.51h-39.14v-543.43h39.14v543.43Zm-856.34-12.48v-542.68h41.46v542.68h-41.46Zm125.47-537.13v543.16h-39.06v-543.16h39.06Zm-517.67 537.09h-39.29v-543.19h39.29v543.19Zm982.61-12.15v-542.48h39.83v542.48h-39.83Zm116.46-6.04h-38.31v-543.41h38.31v543.41Zm30.3-531.39h41.48v537.34h-41.48v-537.34Zm-582.52.21h39.37v537.3h-39.37v-537.3Zm-294.59.06h39.46v537.32h-39.46v-537.32Zm-73.78.06h39.26v537.06h-39.26v-537.06Zm475.4 537.23h-33.52v-531.23h33.52V391.2Zm220.21-12.77h-32.79v-524.06h32.79v524.06Zm-547.91-531.01h30.18v555.42h-30.18v-555.42Zm1549.14 56.65h44.03v537.08h-44.03V-95.93Zm-520.56-.1h42.38v531.19h-42.38V-96.03Zm377.04-12.11h39.63v560.51h-39.63v-560.51Zm259.27 555.79h-38.57V-107.8h38.57v555.45Zm-559.32-574.29h39.14V416.8h-39.14v-543.44Zm856.35 12.49v542.67h-41.46v-542.67h41.46ZM5191.5 422.98v-543.17h39.06v543.17h-39.06Zm-464.94-524.94v542.47h-39.83v-542.47h39.83Zm-116.46 6.04h38.31v543.41h-38.31V-95.92Zm-30.3 531.39h-41.48v-537.34h41.48v537.34Zm582.52-.21h-39.37v-537.31h39.37v537.31Zm294.58-.06h-39.46v-537.32h39.46V435.2Zm73.78-.06h-39.26v-537.06h39.26v537.06Zm-475.39-537.23h33.52v531.22h-33.52v-531.22Zm-220.21 12.76h32.79v524.07h-32.79V-89.33Zm547.91 531.02h-30.18v-555.43h30.18v555.43ZM134.32 382.03H91.94v-531.19h42.38v531.19Zm-77 30.61H18.19V-130.8h39.13v543.44Z" style="fill:#f5f1ea"/></g></svg>